<svg width="542" height="542" viewBox="0 0 542 542" fill="none" xmlns="http://www.w3.org/2000/svg">
<path opacity="0.69" d="M435.048 144.287H322.46C312.939 144.287 305.22 136.569 305.22 127.047C305.22 117.526 312.938 109.808 322.46 109.808H360.52C370.068 109.808 377.759 102.116 377.759 92.5681C377.759 83.02 370.068 75.3284 360.52 75.3284H191.173C181.625 75.3284 173.933 83.02 173.933 92.5681C173.933 102.116 181.625 109.808 191.173 109.808H227.907C237.455 109.808 245.146 117.499 245.146 127.047C245.146 136.596 237.455 144.287 227.907 144.287H109.881C100.333 144.287 92.6417 151.979 92.6417 161.527C92.6417 171.075 100.333 178.766 109.881 178.766H156.826C166.374 178.766 174.066 186.458 174.066 196.006C174.066 205.554 166.374 213.246 156.826 213.246H137.001C127.453 213.246 119.761 220.937 119.761 230.485C119.761 240.034 127.453 247.725 137.001 247.725H202.379V282.204H151.986C142.438 282.204 134.746 289.896 134.746 299.444C134.746 308.992 142.438 316.684 151.986 316.684H243.887C253.435 316.684 261.126 324.375 261.126 333.923C261.126 343.472 253.435 351.163 243.887 351.163H192.499C182.951 351.163 175.26 358.855 175.26 368.403C175.26 377.951 182.951 385.642 192.499 385.642H389.164C398.712 385.642 406.404 377.951 406.404 368.403C406.404 358.855 398.712 351.163 389.164 351.163H339.766V316.684H355.414C364.962 316.684 372.654 308.992 372.654 299.444C372.654 289.896 364.962 282.204 355.414 282.204H339.766V247.725H405.144C414.692 247.725 422.383 240.034 422.383 230.485C422.383 220.937 414.692 213.246 405.144 213.246H377.759C368.238 213.246 360.52 205.527 360.52 196.006C360.52 186.485 368.238 178.766 377.759 178.766H435.181C444.729 178.766 452.42 171.075 452.42 161.527C452.288 152.045 444.596 144.287 435.048 144.287Z" fill="#395D77"/>
<path d="M281.482 213.246H246.539C236.991 213.246 229.299 205.554 229.299 196.006C229.299 186.458 236.991 178.766 246.539 178.766H281.482C291.03 178.766 298.722 186.458 298.722 196.006C298.722 205.554 291.03 213.246 281.482 213.246Z" fill="#4A6D8B"/>
<path opacity="0.69" d="M407.067 316.684H431.07C440.618 316.684 448.309 308.992 448.309 299.444C448.309 289.896 440.618 282.204 431.07 282.204H407.067C397.519 282.204 389.827 289.896 389.827 299.444C389.827 308.992 397.519 316.684 407.067 316.684Z" fill="#395D77"/>
<path opacity="0.69" d="M465.549 247.725H457.327C447.779 247.725 440.087 240.034 440.087 230.485C440.087 220.937 447.779 213.246 457.327 213.246H465.549C475.097 213.246 482.789 220.937 482.789 230.485C482.789 240.034 475.097 247.725 465.549 247.725Z" fill="#395D77"/>
<path opacity="0.69" d="M120.159 385.642H152.384C161.932 385.642 169.623 377.951 169.623 368.403C169.623 358.855 161.932 351.163 152.384 351.163H120.159C110.611 351.163 102.919 358.855 102.919 368.403C102.919 377.951 110.611 385.642 120.159 385.642Z" fill="#395D77"/>
<path opacity="0.69" d="M68.9704 178.766C78.5185 178.766 86.21 171.075 86.21 161.527C86.21 151.979 78.5185 144.287 68.9704 144.287C59.4223 144.287 51.7307 151.979 51.7307 161.527C51.7307 171.075 59.4223 178.766 68.9704 178.766Z" fill="#395D77"/>
<path opacity="0.5" d="M115.717 280.613H97.6812C88.1331 280.613 80.4415 272.922 80.4415 263.373C80.4415 253.825 88.1331 246.134 97.6812 246.134H115.717C125.265 246.134 132.956 253.825 132.956 263.373C132.956 272.855 125.265 280.613 115.717 280.613Z" fill="#825D7E"/>
<path d="M372.587 282.204H298.523C288.975 282.204 281.283 274.513 281.283 264.965C281.283 255.417 288.975 247.725 298.523 247.725H372.587C382.135 247.725 389.827 255.417 389.827 264.965C389.827 274.513 382.135 282.204 372.587 282.204Z" fill="#4A6D8B"/>
<path d="M194.223 244.41H120.159C110.611 244.41 102.919 236.718 102.919 227.17C102.919 217.622 110.611 209.93 120.159 209.93H194.223C203.771 209.93 211.463 217.622 211.463 227.17C211.463 236.718 203.771 244.41 194.223 244.41Z" fill="#684463"/>
<path d="M416.482 351.163H342.418C332.87 351.163 325.178 343.472 325.178 333.923C325.178 324.375 332.87 316.684 342.418 316.684H416.482C426.03 316.684 433.722 324.375 433.722 333.923C433.722 343.472 426.03 351.163 416.482 351.163Z" fill="#4A6D8B"/>
<path opacity="0.56" d="M528.407 418H13.6046C8.83051 418 4.98474 414.154 4.98474 409.38C4.98474 404.606 8.83051 400.76 13.6046 400.76H528.341C533.115 400.76 536.961 404.606 536.961 409.38C537.027 414.154 533.115 418 528.407 418Z" fill="#2D4659"/>
<path d="M241.632 342.411H228.371V408.717H241.632V342.411Z" fill="#8BBF98"/>
<path d="M249.589 342.411H241.632V408.717H249.589V342.411Z" fill="#63916E"/>
<path d="M315.895 342.411H302.634V408.717H315.895V342.411Z" fill="#8BBF98"/>
<path d="M323.852 342.411H315.896V408.717H323.852V342.411Z" fill="#63916E"/>
<path d="M371.593 342.411H358.332V408.717H371.593V342.411Z" fill="#8BBF98"/>
<path d="M379.55 342.411H371.593V408.717H379.55V342.411Z" fill="#63916E"/>
<path d="M422.251 355.672H414.294V408.717H422.251V355.672Z" fill="#8BBF98"/>
<path d="M427.555 355.672H422.251V408.717H427.555V355.672Z" fill="#63916E"/>
<path d="M472.577 355.672H464.621V408.717H472.577V355.672Z" fill="#8BBF98"/>
<path d="M477.882 355.672H472.577V408.717H477.882V355.672Z" fill="#63916E"/>
<path d="M477.882 355.672H472.577V358.324H477.882V355.672Z" fill="#55845F"/>
<path d="M472.577 355.672H464.621V358.324H472.577V355.672Z" fill="#63916E"/>
<path d="M452.288 281.409H444.331V408.717H452.288V281.409Z" fill="#8BBF98"/>
<path d="M457.592 281.409H452.288V408.717H457.592V281.409Z" fill="#63916E"/>
<path d="M502.68 281.409H494.724V408.717H502.68V281.409Z" fill="#8BBF98"/>
<path d="M507.985 281.409H502.681V408.717H507.985V281.409Z" fill="#63916E"/>
<path d="M225.321 307.931H209.673V193.884H225.321C227.509 193.884 229.299 195.675 229.299 197.863V303.953C229.299 306.141 227.575 307.931 225.321 307.931Z" fill="#EF6562"/>
<path d="M220.348 307.931H58.5603C56.3722 307.931 54.5819 306.141 54.5819 303.953V197.863C54.5819 195.675 56.3722 193.884 58.5603 193.884H220.348C222.536 193.884 224.326 195.675 224.326 197.863V303.953C224.326 306.141 222.536 307.931 220.348 307.931Z" fill="#EC958B"/>
<path d="M216.33 299.933L216.33 201.8L62.4987 201.8L62.4987 299.933H216.33Z" fill="#34515B"/>
<path d="M64.4877 299.933L64.4877 201.8H62.4985L62.4985 299.933H64.4877Z" fill="#D84E4E"/>
<path d="M216.37 201.775H213.85V299.908H216.37V201.775Z" fill="#284249"/>
<path d="M153.246 307.931H141.178V408.717H153.246V307.931Z" fill="#D84E4E"/>
<path d="M148.206 307.931H136.139V408.717H148.206V307.931Z" fill="#EF6562"/>
<path d="M148.206 307.931H136.139V312.838H148.206V307.931Z" fill="#D84E4E"/>
<path d="M189.184 408.717H107.826V400.76C107.826 396.384 111.406 392.804 115.783 392.804H181.227C185.603 392.804 189.184 396.384 189.184 400.76V408.717Z" fill="#EF6562"/>
<path d="M181.824 408.717H100.466V400.76C100.466 396.384 104.047 392.804 108.423 392.804H173.867C178.244 392.804 181.824 396.384 181.824 400.76V408.717Z" fill="#EC958B"/>
<path d="M315.896 329.746H228.371V342.411H315.896V329.746Z" fill="#8BBF98"/>
<path d="M379.55 329.746H315.896V342.411H379.55V329.746Z" fill="#63916E"/>
<path d="M309.264 320.927H223.729V329.746H309.264V320.927Z" fill="#9FD6A3"/>
<path d="M315.896 329.746H228.371V332.398H315.896V329.746Z" fill="#63916E"/>
<path d="M385.915 320.927H309.265V329.746H385.915V320.927Z" fill="#83B78D"/>
<path d="M474.169 345.063H410.515V355.672H474.169V345.063Z" fill="#81B58C"/>
<path d="M511.301 345.063H474.169V355.672H511.301V345.063Z" fill="#63916E"/>
<path d="M494.724 287.907H452.288V311.777H494.724V287.907Z" fill="#81B58C"/>
<path d="M507.985 355.672H502.681V358.324H507.985V355.672Z" fill="#55845F"/>
<path d="M502.68 355.672H494.724V358.324H502.68V355.672Z" fill="#63916E"/>
<path d="M452.288 355.672H444.331V358.324H452.288V355.672Z" fill="#63916E"/>
<path d="M422.251 355.672H414.294V358.324H422.251V355.672Z" fill="#63916E"/>
<path d="M427.555 355.672H422.251V358.324H427.555V355.672Z" fill="#55845F"/>
<path d="M457.592 355.672H452.288V358.324H457.592V355.672Z" fill="#55845F"/>
<path d="M379.55 329.746H315.896V332.398H379.55V329.746Z" fill="#577F5D"/>
<path d="M340.441 245.517L334.264 246.348L341.765 302.076L347.942 301.244L340.441 245.517Z" fill="#DD5858"/>
<path d="M341.023 247.005L334.057 247.942L336.03 262.597L342.996 261.659L341.023 247.005Z" fill="#EF6562"/>
<path d="M334.206 249.18L332.891 249.357L333.015 250.277L334.33 250.101L334.206 249.18Z" fill="#E8E8E8"/>
<path d="M334.793 260.721L334.395 260.788L333.002 250.377L333.931 250.245L335.257 260.124C335.323 260.323 335.124 260.655 334.793 260.721Z" fill="#E8E8E8"/>
<path d="M342.62 261.646L336.443 262.477L336.54 263.2L342.717 262.369L342.62 261.646Z" fill="#D35050"/>
<path d="M326.505 262.909L321.134 264.567L318.681 256.677C318.349 255.616 318.946 254.488 320.007 254.157L321.598 253.693C322.659 253.361 323.786 253.958 324.118 255.019L326.505 262.909Z" fill="#E8E8E8"/>
<path d="M327.834 262.5L319.86 264.995L324.176 278.791L332.15 276.296L327.834 262.5Z" fill="#35393D"/>
<path d="M323.388 276.9L329.886 268.744L328.494 264.368L321.996 272.524L323.388 276.9Z" fill="#808284"/>
<path d="M331.748 276.35L324.534 278.607L333.226 306.388L340.44 304.131L331.748 276.35Z" fill="#3B4044"/>
<path opacity="0.66" d="M328.156 277.497L325.751 278.25L334.443 306.031L336.848 305.278L328.156 277.497Z" fill="#6D6F70"/>
<path d="M359.79 252.499L357.204 252.101L353.955 257.936L361.249 258.997L359.79 252.499Z" fill="#C5E1DF"/>
<path d="M351.502 306.473L349.579 306.207C348.12 306.008 347.125 304.616 347.324 303.157L354.021 257.936L361.249 258.997L354.552 304.218C354.353 305.677 352.96 306.738 351.502 306.473Z" fill="#B3DBAD"/>
<path d="M348.783 306.075L348.253 306.009C347.523 305.876 346.993 305.213 347.059 304.417L353.955 257.87L355.812 258.135L348.783 306.075Z" fill="#68A575"/>
<path d="M352.762 306.672L352.231 306.605L359.326 258.732L361.183 258.997L354.287 305.544C354.221 306.274 353.558 306.804 352.762 306.672Z" fill="#68A575"/>
<path d="M359.79 252.499L359.193 249.847C359.127 249.449 358.663 249.383 358.464 249.714L357.138 252.101L359.79 252.499Z" fill="#6F5A66"/>
<path d="M359.79 252.499L358.53 252.3L359.326 258.732L361.249 258.997L359.79 252.499Z" fill="#A5CECA"/>
<path d="M359.79 320.927H322.659V282.735C322.659 282.006 323.256 281.409 323.985 281.409H358.464C359.194 281.409 359.79 282.006 359.79 282.735V320.927Z" fill="#F2E07C"/>
<path d="M354.486 281.409V320.927H359.791V282.735C359.791 282.006 359.194 281.409 358.464 281.409H354.486Z" fill="#DFBB4D"/>
<path d="M334.262 301.168H313.641V320.927H334.262V301.168Z" fill="#6E7EE0"/>
<path d="M315.896 301.168H313.641V320.927H315.896V301.168Z" fill="#7A8CE2"/>
<path d="M331.249 320.876H334.233V301.117H331.249V320.876Z" fill="#6373C1"/>
<path d="M334.25 320.876H336.107V301.117H334.25V320.876Z" fill="#DFBB4D"/>
<path d="M267.624 305.345H252.109V320.861H267.624V305.345Z" fill="#EC958B"/>
<path d="M267.624 305.345H252.109V306.075H267.624V305.345Z" fill="#EF6562"/>
<path d="M275.846 305.345H267.624V320.861H275.846V305.345Z" fill="#EF6562"/>
<path d="M261.524 315.358H258.938L258.54 316.618H257.148L259.469 310.12H260.994L263.314 316.618H261.922L261.524 315.358ZM260.198 311.645L259.27 314.363H261.126L260.198 311.645Z" fill="white"/>
<path d="M289.638 305.345H274.123V320.861H289.638V305.345Z" fill="#E8B58B"/>
<path d="M297.86 305.345H289.638V320.861H297.86V305.345Z" fill="#E09D6C"/>
<path d="M281.947 310.12C283.538 310.12 284.267 311.048 284.267 312.109C284.267 312.904 283.803 313.7 282.809 313.965L284.334 316.618H282.809L281.35 314.098H280.753V316.618H279.427V310.12H281.947ZM281.947 311.18H280.886V313.103H281.947C282.676 313.103 283.008 312.705 283.008 312.109C282.941 311.578 282.61 311.18 281.947 311.18Z" fill="white"/>
<path d="M263.513 289.83H247.998V305.345H263.513V289.83Z" fill="#1BB1B2"/>
<path d="M271.736 289.83H263.514V305.345H271.736V289.83Z" fill="#19A5A1"/>
<path d="M257.877 294.604H259.27L256.883 301.102H255.292L252.905 294.604H254.297L256.087 299.776L257.877 294.604Z" fill="white"/>
<path d="M63.5996 404.606C55.3113 410.64 43.7077 408.85 37.6738 400.562C31.64 392.273 33.4302 380.67 41.7185 374.636L63.5996 404.606Z" fill="#EF6562"/>
<path d="M41.7184 374.635C50.0067 368.602 61.6103 370.392 67.6442 378.68C73.6781 386.969 71.8878 398.572 63.5995 404.606L41.7184 374.635Z" fill="#F2E07C"/>
<path opacity="0.25" d="M55.4439 371.254C62.4724 373.906 67.4454 380.67 67.4454 388.626C67.4454 398.904 59.1571 407.192 48.8796 407.192C47.9513 407.192 47.023 407.126 46.0947 406.993C48.1502 407.789 50.3383 408.187 52.6591 408.187C62.9365 408.187 71.2248 399.898 71.2248 389.621C71.2248 380.272 64.3953 372.58 55.4439 371.254Z" fill="#A59A63"/>
<path d="M124.402 258.135C124.8 257.406 125.132 256.676 125.463 255.947C125.795 255.218 126.126 254.422 126.392 253.626C126.988 252.101 127.519 250.51 127.983 248.919C128.116 248.521 128.248 248.123 128.314 247.725L128.646 246.532C128.845 245.736 129.044 244.94 129.176 244.078C129.375 243.283 129.508 242.421 129.641 241.625C129.773 240.829 129.839 239.967 129.972 239.172L130.038 238.641L130.37 238.376C130.701 238.044 131.232 237.713 131.829 237.713C132.425 237.647 132.89 237.845 133.221 238.044C133.884 238.442 134.348 238.84 134.68 239.304C135.409 240.166 135.94 241.028 136.47 241.956C137.465 243.747 138.26 245.537 139.056 247.394C139.785 249.25 140.515 251.107 141.112 252.963C141.708 254.82 142.305 256.743 142.703 258.732C142.769 259.064 142.57 259.395 142.239 259.461C141.907 259.528 141.576 259.329 141.509 258.997C140.979 257.141 140.316 255.35 139.587 253.494C138.857 251.703 138.061 249.913 137.266 248.189C136.404 246.465 135.542 244.741 134.481 243.15C133.95 242.354 133.42 241.625 132.823 241.028C132.558 240.763 132.227 240.498 132.028 240.431C131.961 240.365 131.895 240.431 132.028 240.431C132.094 240.431 132.227 240.365 132.16 240.365L132.558 239.569C132.425 240.431 132.359 241.293 132.227 242.155C132.094 243.017 131.961 243.879 131.762 244.741C131.63 245.603 131.365 246.465 131.166 247.261L130.834 248.521C130.701 248.919 130.635 249.383 130.503 249.781C130.038 251.438 129.442 253.096 128.845 254.687C128.513 255.483 128.182 256.279 127.85 257.074C127.519 257.87 127.121 258.666 126.723 259.461C126.392 260.124 125.596 260.39 124.933 259.992C124.27 259.594 124.071 258.798 124.402 258.135Z" fill="#D1D1D1"/>
<path d="M125.397 249.515L141.974 247.791C142.571 247.725 143.101 248.189 143.167 248.786C143.234 249.383 142.836 249.913 142.239 249.98L125.662 252.168C124.933 252.234 124.27 251.77 124.204 251.04C124.137 250.311 124.668 249.648 125.397 249.515Z" fill="#D1D1D1"/>
<path d="M492.337 295.134H485.043C483.916 295.134 483.054 294.272 483.054 293.145C483.054 292.018 483.916 291.156 485.043 291.156H492.337C493.464 291.156 494.326 292.018 494.326 293.145C494.326 294.206 493.464 295.134 492.337 295.134Z" fill="#8BBF98"/>
<path d="M487.099 301.301H479.142C478.015 301.301 477.153 300.439 477.153 299.312C477.153 298.184 478.015 297.322 479.142 297.322H487.099C488.226 297.322 489.088 298.184 489.088 299.312C489.088 300.372 488.226 301.301 487.099 301.301Z" fill="#8BBF98"/>
<path opacity="0.74" d="M480.8 308.594H456.929C455.802 308.594 454.94 307.732 454.94 306.605C454.94 305.478 455.802 304.616 456.929 304.616H480.8C481.927 304.616 482.789 305.478 482.789 306.605C482.789 307.732 481.927 308.594 480.8 308.594Z" fill="#8BBF98"/>
<path opacity="0.23" d="M126.126 400.76H110.876C109.749 400.76 108.887 399.898 108.887 398.771C108.887 397.644 109.749 396.782 110.876 396.782H126.126C127.254 396.782 128.116 397.644 128.116 398.771C128.116 399.832 127.254 400.76 126.126 400.76Z" fill="#EF6562"/>
<path opacity="0.23" d="M141.178 400.76H136.736C135.608 400.76 134.746 399.898 134.746 398.771C134.746 397.644 135.608 396.782 136.736 396.782H141.178C142.305 396.782 143.167 397.644 143.167 398.771C143.167 399.832 142.305 400.76 141.178 400.76Z" fill="#EF6562"/>
<path opacity="0.23" d="M174.199 405.733H156.429C155.301 405.733 154.439 404.871 154.439 403.744C154.439 402.617 155.301 401.755 156.429 401.755H174.199C175.326 401.755 176.188 402.617 176.188 403.744C176.188 404.805 175.326 405.733 174.199 405.733Z" fill="#EF6562"/>
<path opacity="0.23" d="M167.037 405.733H163.589C162.462 405.733 161.6 404.871 161.6 403.744C161.6 402.617 162.462 401.755 163.589 401.755H167.037C168.164 401.755 169.026 402.617 169.026 403.744C169.026 404.805 168.164 405.733 167.037 405.733Z" fill="#EF6562"/>
<path d="M468.202 301.301H464.754C463.626 301.301 462.764 300.439 462.764 299.312C462.764 298.184 463.626 297.322 464.754 297.322H468.202C469.329 297.322 470.191 298.184 470.191 299.312C470.191 300.372 469.329 301.301 468.202 301.301Z" fill="#8BBF98"/>
<path d="M474.235 295.134H457.658C456.531 295.134 455.669 294.272 455.669 293.145C455.669 292.018 456.531 291.156 457.658 291.156H474.235C475.362 291.156 476.224 292.018 476.224 293.145C476.224 294.206 475.362 295.134 474.235 295.134Z" fill="#8BBF98"/>
<path opacity="0.18" d="M252.507 336.045H238.715C238.118 336.045 237.588 335.581 237.588 334.918C237.588 334.321 238.052 333.791 238.715 333.791H252.507C253.103 333.791 253.634 334.255 253.634 334.918C253.567 335.581 253.103 336.045 252.507 336.045Z" fill="#63916E"/>
<path opacity="0.18" d="M263.049 336.045H256.75C256.153 336.045 255.623 335.581 255.623 334.918C255.623 334.321 256.087 333.791 256.75 333.791H263.049C263.646 333.791 264.176 334.255 264.176 334.918C264.11 335.581 263.646 336.045 263.049 336.045Z" fill="#63916E"/>
<path opacity="0.18" d="M271.603 339.891H258.01C257.413 339.891 256.883 339.427 256.883 338.764C256.883 338.167 257.347 337.637 258.01 337.637H271.603C272.2 337.637 272.73 338.101 272.73 338.764C272.664 339.361 272.2 339.891 271.603 339.891Z" fill="#63916E"/>
<path opacity="0.18" d="M295.804 339.891H291.76C291.163 339.891 290.633 339.427 290.633 338.764C290.633 338.167 291.097 337.637 291.76 337.637H295.804C296.401 337.637 296.932 338.101 296.932 338.764C296.865 339.361 296.401 339.891 295.804 339.891Z" fill="#63916E"/>
<path opacity="0.18" d="M299.849 336.708H295.804C295.208 336.708 294.677 336.244 294.677 335.581C294.677 334.984 295.141 334.454 295.804 334.454H299.849C300.446 334.454 300.976 334.918 300.976 335.581C300.976 336.178 300.512 336.708 299.849 336.708Z" fill="#63916E"/>
<path opacity="0.26" d="M342.352 339.891H326.77C326.173 339.891 325.643 339.427 325.643 338.764C325.643 338.167 326.107 337.637 326.77 337.637H342.352C342.948 337.637 343.479 338.101 343.479 338.764C343.413 339.361 342.948 339.891 342.352 339.891Z" fill="#8BBF98"/>
<path opacity="0.26" d="M364.564 339.891H360.52C359.923 339.891 359.392 339.427 359.392 338.764C359.392 338.167 359.856 337.637 360.52 337.637H364.564C365.161 337.637 365.691 338.101 365.691 338.764C365.625 339.361 365.161 339.891 364.564 339.891Z" fill="#8BBF98"/>
<path opacity="0.26" d="M346.595 336.112H337.843C337.246 336.112 336.715 335.647 336.715 334.984C336.715 334.388 337.179 333.857 337.843 333.857H346.595C347.192 333.857 347.722 334.321 347.722 334.984C347.722 335.647 347.258 336.112 346.595 336.112Z" fill="#8BBF98"/>
</svg>
