<svg width="1887" height="461" viewBox="0 0 1887 461" fill="none" xmlns="http://www.w3.org/2000/svg">
<rect width="1887" height="461" fill="url(#paint0_linear)"/>
<mask id="mask0" mask-type="alpha" maskUnits="userSpaceOnUse" x="0" y="0" width="1887" height="461">
<rect width="1887" height="461" fill="url(#paint1_linear)"/>
</mask>
<g mask="url(#mask0)">
<path d="M820.667 493.729H683.301C669.335 493.729 657.988 482.382 657.988 468.416C657.988 454.45 669.335 443.103 683.301 443.103H760.003C776.588 443.103 790.008 429.683 790.008 413.098C790.008 396.514 776.588 383.094 760.003 383.094H691.811C673.154 383.094 657.988 367.928 657.988 349.27C657.988 330.613 673.154 315.447 691.811 315.447H767.641C784.225 315.447 797.755 301.918 797.755 285.333C797.755 268.749 784.225 255.22 767.641 255.22H658.097H631.911C615.327 255.22 601.797 241.69 601.797 225.106C601.797 208.522 615.327 194.992 631.911 194.992H661.588C678.173 194.992 691.702 181.463 691.702 164.879C691.702 148.294 678.173 134.765 661.588 134.765H644.677H641.84H462.576H456.466H269.238H226.358C209.774 134.765 196.245 148.294 196.245 164.879C196.245 181.463 209.774 194.992 226.358 194.992H239.124C255.708 194.992 269.238 208.522 269.238 225.106C269.238 241.69 255.708 255.22 239.124 255.22H124.234C111.468 255.22 101.103 265.585 101.103 278.35C101.103 291.116 111.468 301.481 124.234 301.481H245.234C258.545 301.481 269.347 312.283 269.347 325.594C269.347 338.905 258.545 349.707 245.234 349.707H52.1137C35.5293 349.707 22 363.236 22 379.82C22 396.405 35.5293 409.934 52.1137 409.934H239.124C255.708 409.934 269.238 423.463 269.238 440.048C269.238 456.632 255.708 470.162 239.124 470.162H126.198C99.5755 470.162 77.9722 491.765 77.9722 518.387C77.9722 545.009 99.5755 566.613 126.198 566.613H269.238H332.738H368.416H658.097H820.667C840.743 566.613 857 550.356 857 530.28C857 509.986 840.743 493.729 820.667 493.729Z" fill="#4C21D7"/>
<path d="M565.801 683.712H585.44V388.249H565.801V683.712Z" fill="#2F262D"/>
<path d="M491.054 447.795C487.889 440.703 491.053 432.302 498.255 429.028C500.109 428.265 502.073 427.828 504.037 427.828C509.602 427.828 514.73 431.101 517.021 436.229L586.85 593.563L560.882 605.128L491.054 447.795Z" fill="#FC9F6F"/>
<path d="M374.313 683.712H393.953L393.953 388.249H374.313L374.313 683.712Z" fill="#2F262D"/>
<path d="M465.195 407.534C397.657 407.534 342.994 356.035 342.994 292.643C342.994 276.277 346.704 260.675 353.251 246.491C310.262 264.275 280.258 304.754 280.258 351.671C280.258 415.171 334.92 466.561 402.458 466.561C452.538 466.561 495.527 438.302 514.402 397.823C499.236 404.042 482.652 407.534 465.195 407.534Z" fill="#F2F2F2"/>
<path d="M397.548 438.63C434.487 438.63 464.431 411.128 464.431 377.202C464.431 343.276 434.487 315.774 397.548 315.774C360.61 315.774 330.665 343.276 330.665 377.202C330.665 411.128 360.61 438.63 397.548 438.63Z" fill="#3B323A"/>
<path d="M277.093 388.223H127.507C121.833 388.223 117.142 383.531 117.142 377.857V368.038C117.142 362.364 121.833 357.672 127.507 357.672H277.093C282.767 357.672 287.459 362.364 287.459 368.038V377.857C287.459 383.531 282.767 388.223 277.093 388.223Z" fill="#AFAFAF"/>
<path d="M455.484 330.395C434.536 330.395 417.515 313.374 417.515 292.426V254.456C417.515 239.945 405.84 228.271 391.329 228.271V292.426C391.329 327.886 420.024 356.581 455.484 356.581H508.62V330.395H455.484Z" fill="#EF9067"/>
<path d="M464.104 129.965C460.176 179.609 416.533 234.599 375.727 227.616C336.666 220.961 309.826 159.315 323.028 116.108C331.211 89.4859 353.687 72.7925 371.799 59.3722C390.565 45.4065 403.222 36.0232 417.624 38.3145C446.21 42.6788 467.268 90.4679 464.104 129.965Z" fill="#603936"/>
<path d="M409.004 271.259C408.241 270.386 402.131 263.294 401.039 262.312C398.203 250.638 392.42 237.763 393.62 222.706C385.437 216.705 371.908 209.068 356.524 210.159C351.941 210.486 347.14 211.577 344.74 212.123C331.429 215.178 323.028 220.087 320.3 221.724C316.59 224.015 314.735 225.106 312.553 227.289C306.662 233.399 305.243 240.818 304.479 245.182C297.933 283.152 303.061 319.594 303.716 322.758C304.916 328.54 306.552 333.668 306.552 333.668C309.28 342.288 312.553 347.634 313.426 350.034C317.79 361.818 327.719 386.586 338.194 405.461C345.831 406.661 363.179 414.299 374.635 410.371C392.093 404.37 428.098 390.95 440.973 388.222C424.934 370.219 410.205 350.144 406.386 325.704C405.404 319.375 404.531 313.156 403.876 307.046C405.404 306.282 414.678 301.591 416.533 292.208C418.497 282.061 410.532 273.005 409.004 271.259Z" fill="#F05364"/>
<path d="M369.603 248.228C379.122 245.574 384.332 234.435 381.241 223.35C378.149 212.264 367.927 205.429 358.408 208.083C348.889 210.738 343.679 221.876 346.77 232.962C349.862 244.048 360.084 250.883 369.603 248.228Z" fill="#EF9067"/>
<path d="M361.215 203.394C367.216 217.578 377.145 222.488 383.473 226.198C395.803 233.399 418.933 232.744 418.933 232.744C419.697 227.725 420.461 223.361 424.389 215.069C430.062 202.739 435.299 199.794 442.61 188.665C453.52 171.862 458.976 151.568 455.484 149.604C452.975 148.077 446.101 155.932 441.628 160.515C428.862 173.608 400.276 193.029 361.215 203.394Z" fill="#603936"/>
<path d="M360.779 234.599H356.196C346.158 234.599 338.084 226.525 338.084 216.487V147.64H374.308V220.96C374.308 228.489 368.198 234.599 360.779 234.599Z" fill="#EF9067"/>
<path d="M156.839 683.712H176.478L176.478 388.249H156.839L156.839 683.712Z" fill="#2F262D"/>
<path d="M277.632 683.712H297.272L297.272 388.249H277.632L277.632 683.712Z" fill="#494149"/>
<path d="M684.011 683.712H703.65V388.249H684.011V683.712Z" fill="#494149"/>
<path opacity="0.71" d="M338.084 154.95C340.485 175.79 354.887 193.029 374.308 199.575V143.494H338.084V154.95Z" fill="#D36B46"/>
<path d="M391.329 196.847C364.707 196.847 343.213 175.353 343.213 148.731V90.0308C343.213 87.5213 345.177 85.5574 347.686 85.5574H416.097C428.971 85.5574 439.446 96.0317 439.446 108.906V148.731C439.446 175.353 417.951 196.847 391.329 196.847Z" fill="#FC9F6F"/>
<path d="M439.446 141.857C438.9 143.167 437.591 144.039 436.172 144.039H415.006C413.042 144.039 411.405 142.403 411.405 140.439V128.546C411.405 126.582 413.042 124.946 415.006 124.946H436.172C437.591 124.946 438.9 125.818 439.446 127.128V122.545C438.464 122 437.372 121.672 436.172 121.672H415.006C411.187 121.672 408.132 124.727 408.132 128.546V140.439C408.132 144.258 411.187 147.313 415.006 147.313H436.172C437.372 147.313 438.464 146.985 439.446 146.44V141.857Z" fill="#DD9883"/>
<path d="M396.894 145.567H375.727C372.781 145.567 370.49 143.166 370.49 140.329V128.437C370.49 125.491 372.89 123.199 375.727 123.199H396.894C399.84 123.199 402.131 125.6 402.131 128.437V140.329C402.131 143.275 399.73 145.567 396.894 145.567Z" stroke="#DD9883" stroke-width="3" stroke-miterlimit="10" stroke-linecap="round" stroke-linejoin="round"/>
<path opacity="0.6" d="M373.108 157.896V99.1964C373.108 96.6869 375.072 94.723 377.582 94.723L417.079 80.8663C412.823 75.3019 423.625 85.6671 416.097 85.6671H347.686C345.177 85.6671 343.213 87.631 343.213 90.1405V148.84C343.213 175.463 364.707 196.957 391.329 196.957C391.875 196.957 392.42 196.957 393.075 196.957C380.964 188.119 373.108 173.935 373.108 157.896Z" fill="#EF9067"/>
<path d="M436.172 143.385H415.005C412.059 143.385 409.768 140.984 409.768 138.147V126.255C409.768 123.309 412.169 121.018 415.005 121.018H436.172C439.118 121.018 441.409 123.418 441.409 126.255V138.147C441.409 141.093 439.009 143.385 436.172 143.385Z" stroke="#F6CDF7" stroke-width="3" stroke-miterlimit="10" stroke-linecap="round" stroke-linejoin="round"/>
<path d="M403.876 172.625C397.766 172.625 392.857 167.715 392.857 161.714V156.586H414.678V161.714C414.678 167.715 409.877 172.625 403.876 172.625Z" fill="#FCFAFA"/>
<path d="M384.128 130.837H393.948" stroke="#161515" stroke-width="3" stroke-miterlimit="10" stroke-linecap="round" stroke-linejoin="round"/>
<path d="M421.225 130.837H431.044" stroke="#161515" stroke-width="3" stroke-miterlimit="10" stroke-linecap="round" stroke-linejoin="round"/>
<path d="M396.894 143.385H375.727C372.781 143.385 370.49 140.984 370.49 138.147V126.255C370.49 123.309 372.89 121.018 375.727 121.018H396.894C399.84 121.018 402.131 123.418 402.131 126.255V138.147C402.131 141.093 399.73 143.385 396.894 143.385Z" stroke="#F6CDF7" stroke-width="3" stroke-miterlimit="10" stroke-linecap="round" stroke-linejoin="round"/>
<path d="M411.514 41.3692C398.312 24.3484 375.836 24.6757 371.69 24.2393C367.98 23.4755 347.577 24.4575 332.629 28.3854C298.151 37.5504 274.147 68.7552 274.147 104.542V150.368C274.147 181.136 296.842 218.451 325.974 228.161C342.121 233.617 360.015 237.763 364.27 237.108C342.667 197.066 345.613 173.389 351.723 159.533C366.343 125.709 409.223 126.909 419.806 89.2674C420.024 88.1763 426.68 61.0085 411.514 41.3692Z" fill="#754743"/>
<path d="M546.153 356.253C547.244 353.417 547.789 350.362 547.789 347.197C547.789 332.686 536.115 321.012 521.604 321.012C507.092 321.012 495.418 332.686 495.418 347.197C495.418 350.362 495.963 353.417 497.054 356.253H546.153Z" fill="#EF9067"/>
<path d="M462.14 357.672C459.958 347.634 447.847 339.996 433.117 339.996C418.497 339.996 406.277 347.634 404.095 357.672H462.14Z" fill="#F4EFF0"/>
<path d="M318.445 281.297C327.243 281.297 334.375 270.11 334.375 256.311C334.375 242.512 327.243 231.325 318.445 231.325C309.648 231.325 302.516 242.512 302.516 256.311C302.516 270.11 309.648 281.297 318.445 281.297Z" fill="#EF9067"/>
<path d="M366.671 331.268C345.722 331.268 328.701 314.248 328.701 293.299V246.928C328.701 239.727 322.81 233.835 315.608 233.835C308.407 233.835 302.516 239.727 302.516 246.928V293.299C302.516 328.759 331.211 357.454 366.671 357.454H419.806V331.268H393.184H366.671Z" fill="#FC9F6F"/>
<path d="M587.286 357.672H465.086C463.558 357.672 462.249 356.362 462.249 354.835C462.249 353.307 463.558 351.998 465.086 351.998H587.396C588.923 351.998 590.232 353.307 590.232 354.835C590.232 356.362 588.923 357.672 587.286 357.672Z" fill="white"/>
<path d="M587.286 354.835H465.086C463.995 354.835 463.122 354.289 462.576 353.417C462.358 353.853 462.14 354.289 462.14 354.835C462.14 356.362 463.449 357.672 464.977 357.672H587.286C588.814 357.672 590.123 356.362 590.123 354.835C590.123 354.289 590.014 353.853 589.687 353.417C589.25 354.18 588.377 354.835 587.286 354.835Z" fill="#F4EFF0"/>
<path d="M488.762 357.672H465.086C463.558 357.672 462.249 356.362 462.249 354.835C462.249 353.307 463.558 351.998 465.086 351.998H488.762C490.29 351.998 491.599 353.307 491.599 354.835C491.599 356.362 490.399 357.672 488.762 357.672Z" fill="#F4EFF0"/>
<path d="M578.667 351.998H569.72V349.925C569.72 348.834 570.593 347.852 571.793 347.852H576.594C577.685 347.852 578.667 348.725 578.667 349.925V351.998V351.998Z" fill="#F4EFF0"/>
<path d="M567.756 351.998H558.809V349.925C558.809 348.834 559.682 347.852 560.882 347.852H565.683C566.774 347.852 567.756 348.725 567.756 349.925V351.998V351.998Z" fill="#F4EFF0"/>
<path d="M556.845 351.998H547.898V349.925C547.898 348.834 548.771 347.852 549.971 347.852H554.772C555.863 347.852 556.845 348.725 556.845 349.925V351.998V351.998Z" fill="#F4EFF0"/>
<path d="M545.934 351.998H536.988V349.925C536.988 348.834 537.861 347.852 539.061 347.852H543.861C544.952 347.852 545.934 348.725 545.934 349.925V351.998V351.998Z" fill="#F4EFF0"/>
<path d="M535.024 351.998H526.077V349.925C526.077 348.834 526.95 347.852 528.15 347.852H532.951C534.042 347.852 535.024 348.725 535.024 349.925V351.998V351.998Z" fill="#F4EFF0"/>
<path d="M524.113 351.998H515.166V349.925C515.166 348.834 516.039 347.852 517.239 347.852H522.04C523.131 347.852 524.113 348.725 524.113 349.925V351.998V351.998Z" fill="#F4EFF0"/>
<path d="M513.202 351.998H504.255V349.925C504.255 348.834 505.128 347.852 506.329 347.852H511.129C512.22 347.852 513.202 348.725 513.202 349.925V351.998V351.998Z" fill="#F4EFF0"/>
<path d="M502.291 351.998H493.345V349.925C493.345 348.834 494.218 347.852 495.418 347.852H500.218C501.309 347.852 502.291 348.725 502.291 349.925V351.998V351.998Z" fill="#F4EFF0"/>
<path d="M491.381 351.998H482.434V349.925C482.434 348.834 483.307 347.852 484.507 347.852H489.308C490.399 347.852 491.381 348.725 491.381 349.925V351.998V351.998Z" fill="#F4EFF0"/>
<path d="M480.47 351.998H471.523V349.925C471.523 348.834 472.396 347.852 473.596 347.852H478.397C479.488 347.852 480.47 348.725 480.47 349.925V351.998V351.998Z" fill="#F4EFF0"/>
<path d="M465.086 357.672H488.762C490.29 357.672 491.599 356.363 491.599 354.835H462.14C462.14 356.363 463.449 357.672 465.086 357.672Z" fill="#E2E2E2"/>
<path d="M475.669 446.267H389.365L388.71 400.442H495.636C502.837 400.442 508.62 406.224 508.62 413.425C508.511 431.646 493.781 446.267 475.669 446.267Z" fill="#352934"/>
<path d="M406.277 612.438L459.194 433.502C460.94 427.501 466.504 423.355 472.832 423.355C474.142 423.355 475.56 423.573 476.869 423.9C484.398 426.082 488.653 434.047 486.471 441.576L433.554 620.512L406.277 612.438Z" fill="#EF9067"/>
<path d="M450.247 597.818L406.277 584.834L461.703 397.496C465.304 385.385 478.069 378.402 490.18 382.003C502.291 385.603 509.274 398.369 505.674 410.48L450.247 597.818Z" fill="#352934"/>
<path d="M668.681 304.646H485.38C481.779 304.646 478.833 301.7 478.833 298.099L501.528 167.17C501.528 163.57 504.474 160.624 508.074 160.624H691.375C694.975 160.624 697.921 163.57 697.921 167.17L675.227 298.099C675.227 301.7 672.39 304.646 668.681 304.646Z" fill="#CECECE"/>
<path d="M679.591 304.646H496.29C492.69 304.646 489.744 301.7 489.744 298.099L512.438 167.17C512.438 163.57 515.384 160.624 518.985 160.624H702.286C705.886 160.624 708.832 163.57 708.832 167.17L686.138 298.099C686.138 301.7 683.301 304.646 679.591 304.646Z" fill="#F4EFF0"/>
<path d="M623.619 350.58L608.562 274.314H581.722C578.448 274.314 575.939 277.369 576.594 280.533L589.905 347.853C590.45 350.362 588.486 352.654 585.977 352.654H569.611C566.665 352.654 564.374 355.054 564.374 357.891H591.869H617.4C621.437 358 624.383 354.399 623.619 350.58Z" fill="#CECECE"/>
<path d="M625.038 357.999H597.215L581.067 276.169C580.849 275.187 581.613 274.423 582.595 274.423H613.909L629.402 352.871C629.838 355.49 627.765 357.999 625.038 357.999Z" fill="#F4EFF0"/>
<path d="M591.978 357.999H597.215L595.797 350.58H590.45L591.978 357.999Z" fill="#F4EFF0"/>
<path d="M591.978 357.999C594.705 357.999 596.778 355.49 596.233 352.762L595.797 350.58H589.905L591.978 357.999Z" fill="#CECECE"/>
<path d="M615.981 235.254C610.09 235.254 605.289 230.453 605.289 224.561C605.289 222.597 605.834 220.851 606.707 219.324C605.18 218.887 603.543 218.56 601.797 218.56C592.523 218.56 585.104 226.089 585.104 235.254C585.104 244.419 592.632 251.947 601.797 251.947C611.072 251.947 618.491 244.419 618.491 235.254C618.491 235.144 618.491 235.035 618.491 234.926C617.618 235.144 616.854 235.254 615.981 235.254Z" fill="#CECECE"/>
<path d="M489.089 421.281L399.185 444.958C374.745 451.395 349.977 434.047 338.084 405.352L477.415 376.875C489.635 373.711 502.182 381.021 505.346 393.241C508.62 405.57 501.309 418.117 489.089 421.281Z" fill="#3B323A"/>
<path d="M579.54 557.666L537.642 576.324L464.213 411.135C459.085 399.569 464.322 386.04 475.888 380.912C487.453 375.784 500.982 381.021 506.11 392.586L579.54 557.666Z" fill="#3B323A"/>
<path d="M268.038 388.223H735.236C740.91 388.223 745.601 383.531 745.601 377.857V368.038C745.601 362.364 740.91 357.672 735.236 357.672H268.038C262.364 357.672 257.672 362.364 257.672 368.038V377.857C257.672 383.531 262.255 388.223 268.038 388.223Z" fill="#F2F2F2"/>
<path d="M241.306 357.672H223.631C214.684 357.672 207.374 350.361 207.374 341.415V293.298H257.563V341.415C257.672 350.361 250.362 357.672 241.306 357.672Z" fill="#FF6161"/>
<path d="M213.047 299.845C201.373 299.845 191.99 309.337 191.99 320.902C191.99 332.468 201.482 341.96 213.047 341.96C224.613 341.96 234.105 332.468 234.105 320.902C234.105 309.337 224.613 299.845 213.047 299.845ZM213.047 337.378C203.991 337.378 196.572 329.958 196.572 320.902C196.572 311.847 203.991 304.427 213.047 304.427C222.103 304.427 229.523 311.847 229.523 320.902C229.414 330.068 222.103 337.378 213.047 337.378Z" fill="#F4A36C"/>
<path d="M241.306 357.672H223.631C214.684 357.672 207.374 350.361 207.374 341.415V293.298H257.563V341.415C257.672 350.361 250.362 357.672 241.306 357.672Z" fill="#F7BC8B"/>
<path d="M231.159 342.397C226.14 342.397 222.103 338.36 222.103 333.341V293.298H207.374V341.415C207.374 350.361 214.684 357.672 223.631 357.672H241.306C249.926 357.672 257.018 350.907 257.563 342.397H231.159Z" fill="#EFA573"/>
<path d="M439.227 357.672C440.318 354.835 440.864 351.78 440.864 348.616C440.864 334.105 429.189 322.43 414.678 322.43C400.167 322.43 388.492 334.105 388.492 348.616C388.492 351.78 389.038 354.835 390.129 357.672H439.227Z" fill="#FC9F6F"/>
<path opacity="0.77" d="M227.013 284.57C230.93 284.57 234.105 281.395 234.105 277.478C234.105 273.561 230.93 270.386 227.013 270.386C223.096 270.386 219.921 273.561 219.921 277.478C219.921 281.395 223.096 284.57 227.013 284.57Z" fill="#F2F2F2"/>
<path opacity="0.77" d="M240.106 263.294C245.951 263.294 250.689 258.555 250.689 252.71C250.689 246.865 245.951 242.127 240.106 242.127C234.261 242.127 229.523 246.865 229.523 252.71C229.523 258.555 234.261 263.294 240.106 263.294Z" fill="#F2F2F2"/>
<path d="M136.563 194.992C153.194 194.992 166.677 181.51 166.677 164.879C166.677 148.247 153.194 134.765 136.563 134.765C119.932 134.765 106.449 148.247 106.449 164.879C106.449 181.51 119.932 194.992 136.563 194.992Z" fill="#4C21D7"/>
</g>
<path d="M937.192 253.512C934.333 253.512 931.539 253.171 928.808 252.488C926.077 251.763 923.901 250.867 922.28 249.8L925.608 242.632C927.144 243.613 929 244.424 931.176 245.064C933.352 245.661 935.485 245.96 937.576 245.96C941.8 245.96 943.912 244.915 943.912 242.824C943.912 241.843 943.336 241.139 942.184 240.712C941.032 240.285 939.261 239.923 936.872 239.624C934.056 239.197 931.731 238.707 929.896 238.152C928.061 237.597 926.461 236.616 925.096 235.208C923.773 233.8 923.112 231.795 923.112 229.192C923.112 227.016 923.731 225.096 924.968 223.432C926.248 221.725 928.083 220.403 930.472 219.464C932.904 218.525 935.763 218.056 939.048 218.056C941.48 218.056 943.891 218.333 946.28 218.888C948.712 219.4 950.717 220.125 952.296 221.064L948.968 228.168C945.939 226.461 942.632 225.608 939.048 225.608C936.915 225.608 935.315 225.907 934.248 226.504C933.181 227.101 932.648 227.869 932.648 228.808C932.648 229.875 933.224 230.621 934.376 231.048C935.528 231.475 937.363 231.88 939.88 232.264C942.696 232.733 945 233.245 946.792 233.8C948.584 234.312 950.141 235.272 951.464 236.68C952.787 238.088 953.448 240.051 953.448 242.568C953.448 244.701 952.808 246.6 951.528 248.264C950.248 249.928 948.371 251.229 945.896 252.168C943.464 253.064 940.563 253.512 937.192 253.512ZM979.96 218.056C983.16 218.056 986.061 218.803 988.664 220.296C991.309 221.747 993.379 223.816 994.872 226.504C996.365 229.149 997.112 232.243 997.112 235.784C997.112 239.325 996.365 242.44 994.872 245.128C993.379 247.773 991.309 249.843 988.664 251.336C986.061 252.787 983.16 253.512 979.96 253.512C975.565 253.512 972.109 252.125 969.592 249.352V265.416H959.608V218.568H969.144V222.536C971.619 219.549 975.224 218.056 979.96 218.056ZM978.232 245.32C980.792 245.32 982.883 244.467 984.504 242.76C986.168 241.011 987 238.685 987 235.784C987 232.883 986.168 230.579 984.504 228.872C982.883 227.123 980.792 226.248 978.232 226.248C975.672 226.248 973.56 227.123 971.896 228.872C970.275 230.579 969.464 232.883 969.464 235.784C969.464 238.685 970.275 241.011 971.896 242.76C973.56 244.467 975.672 245.32 978.232 245.32ZM1037.52 235.912C1037.52 236.04 1037.46 236.936 1037.33 238.6H1011.28C1011.75 240.733 1012.86 242.419 1014.61 243.656C1016.36 244.893 1018.54 245.512 1021.14 245.512C1022.93 245.512 1024.51 245.256 1025.88 244.744C1027.28 244.189 1028.58 243.336 1029.78 242.184L1035.09 247.944C1031.85 251.656 1027.11 253.512 1020.88 253.512C1017 253.512 1013.57 252.765 1010.58 251.272C1007.59 249.736 1005.29 247.624 1003.67 244.936C1002.05 242.248 1001.24 239.197 1001.24 235.784C1001.24 232.413 1002.02 229.384 1003.6 226.696C1005.22 223.965 1007.42 221.853 1010.2 220.36C1013.01 218.824 1016.15 218.056 1019.6 218.056C1022.97 218.056 1026.02 218.781 1028.76 220.232C1031.49 221.683 1033.62 223.773 1035.16 226.504C1036.73 229.192 1037.52 232.328 1037.52 235.912ZM1019.67 225.608C1017.41 225.608 1015.51 226.248 1013.97 227.528C1012.44 228.808 1011.5 230.557 1011.16 232.776H1028.12C1027.77 230.6 1026.84 228.872 1025.3 227.592C1023.76 226.269 1021.89 225.608 1019.67 225.608ZM1057.12 218.056C1062.45 218.056 1066.55 219.336 1069.41 221.896C1072.27 224.413 1073.7 228.232 1073.7 233.352V253H1064.35V248.712C1062.48 251.912 1058.98 253.512 1053.86 253.512C1051.21 253.512 1048.91 253.064 1046.95 252.168C1045.03 251.272 1043.55 250.035 1042.53 248.456C1041.51 246.877 1040.99 245.085 1040.99 243.08C1040.99 239.88 1042.19 237.363 1044.58 235.528C1047.01 233.693 1050.74 232.776 1055.78 232.776H1063.71C1063.71 230.6 1063.05 228.936 1061.73 227.784C1060.41 226.589 1058.42 225.992 1055.78 225.992C1053.94 225.992 1052.13 226.291 1050.34 226.888C1048.59 227.443 1047.09 228.211 1045.86 229.192L1042.27 222.216C1044.15 220.893 1046.39 219.869 1048.99 219.144C1051.64 218.419 1054.35 218.056 1057.12 218.056ZM1056.35 246.792C1058.06 246.792 1059.57 246.408 1060.9 245.64C1062.22 244.829 1063.16 243.656 1063.71 242.12V238.6H1056.87C1052.77 238.6 1050.72 239.944 1050.72 242.632C1050.72 243.912 1051.21 244.936 1052.19 245.704C1053.22 246.429 1054.6 246.792 1056.35 246.792ZM1097.52 239.496L1092.72 244.232V253H1082.73V205.512H1092.72V232.392L1107.31 218.568H1119.21L1104.88 233.16L1120.49 253H1108.4L1097.52 239.496ZM1157.21 235.912C1157.21 236.04 1157.15 236.936 1157.02 238.6H1130.97C1131.44 240.733 1132.55 242.419 1134.3 243.656C1136.05 244.893 1138.22 245.512 1140.83 245.512C1142.62 245.512 1144.2 245.256 1145.56 244.744C1146.97 244.189 1148.27 243.336 1149.47 242.184L1154.78 247.944C1151.54 251.656 1146.8 253.512 1140.57 253.512C1136.69 253.512 1133.25 252.765 1130.27 251.272C1127.28 249.736 1124.98 247.624 1123.36 244.936C1121.73 242.248 1120.92 239.197 1120.92 235.784C1120.92 232.413 1121.71 229.384 1123.29 226.696C1124.91 223.965 1127.11 221.853 1129.88 220.36C1132.7 218.824 1135.84 218.056 1139.29 218.056C1142.66 218.056 1145.71 218.781 1148.44 220.232C1151.17 221.683 1153.31 223.773 1154.84 226.504C1156.42 229.192 1157.21 232.328 1157.21 235.912ZM1139.36 225.608C1137.09 225.608 1135.2 226.248 1133.66 227.528C1132.12 228.808 1131.18 230.557 1130.84 232.776H1147.8C1147.46 230.6 1146.52 228.872 1144.99 227.592C1143.45 226.269 1141.57 225.608 1139.36 225.608ZM1186.07 251.336C1185.08 252.061 1183.87 252.616 1182.42 253C1181.01 253.341 1179.52 253.512 1177.94 253.512C1173.84 253.512 1170.66 252.467 1168.4 250.376C1166.18 248.285 1165.07 245.213 1165.07 241.16V227.016H1159.76V219.336H1165.07V210.952H1175.06V219.336H1183.63V227.016H1175.06V241.032C1175.06 242.483 1175.42 243.613 1176.15 244.424C1176.91 245.192 1177.98 245.576 1179.35 245.576C1180.92 245.576 1182.27 245.149 1183.38 244.296L1186.07 251.336ZM1212.6 218.056C1216.87 218.056 1220.3 219.336 1222.9 221.896C1225.55 224.456 1226.87 228.253 1226.87 233.288V253H1216.89V234.824C1216.89 232.093 1216.29 230.067 1215.09 228.744C1213.9 227.379 1212.17 226.696 1209.91 226.696C1207.39 226.696 1205.39 227.485 1203.89 229.064C1202.4 230.6 1201.65 232.904 1201.65 235.976V253H1191.67V205.512H1201.65V222.152C1202.98 220.829 1204.58 219.827 1206.45 219.144C1208.33 218.419 1210.38 218.056 1212.6 218.056ZM1243.98 265.416C1241.42 261.533 1239.44 257.032 1238.03 251.912C1236.67 246.792 1235.98 241.309 1235.98 235.464C1235.98 229.619 1236.67 224.136 1238.03 219.016C1239.44 213.853 1241.42 209.352 1243.98 205.512H1253.52C1250.83 210.248 1248.87 215.069 1247.63 219.976C1246.4 224.84 1245.78 230.003 1245.78 235.464C1245.78 240.925 1246.4 246.109 1247.63 251.016C1248.87 255.88 1250.83 260.68 1253.52 265.416H1243.98ZM1265.32 215.688C1266.39 216.157 1267.22 216.861 1267.82 217.8C1268.42 218.739 1268.72 219.848 1268.72 221.128C1268.72 222.963 1268.14 224.456 1266.99 225.608C1265.84 226.717 1264.36 227.272 1262.57 227.272C1260.78 227.272 1259.29 226.696 1258.09 225.544C1256.94 224.392 1256.36 222.92 1256.36 221.128C1256.36 220.275 1256.47 219.421 1256.68 218.568C1256.9 217.715 1257.37 216.435 1258.09 214.728L1261.8 205.512H1268.14L1265.32 215.688ZM1280.43 215.688C1281.49 216.157 1282.33 216.861 1282.92 217.8C1283.52 218.739 1283.82 219.848 1283.82 221.128C1283.82 222.963 1283.24 224.456 1282.09 225.608C1280.94 226.717 1279.47 227.272 1277.68 227.272C1275.88 227.272 1274.39 226.696 1273.2 225.544C1272.04 224.392 1271.47 222.92 1271.47 221.128C1271.47 220.275 1271.57 219.421 1271.79 218.568C1272 217.715 1272.47 216.435 1273.2 214.728L1276.91 205.512H1283.24L1280.43 215.688ZM1311.6 218.056C1315.87 218.056 1319.3 219.336 1321.9 221.896C1324.55 224.456 1325.87 228.253 1325.87 233.288V253H1315.89V234.824C1315.89 232.093 1315.29 230.067 1314.09 228.744C1312.9 227.379 1311.17 226.696 1308.91 226.696C1306.39 226.696 1304.39 227.485 1302.89 229.064C1301.4 230.6 1300.65 232.904 1300.65 235.976V253H1290.67V205.512H1300.65V222.152C1301.98 220.829 1303.58 219.827 1305.45 219.144C1307.33 218.419 1309.38 218.056 1311.6 218.056ZM1369.02 235.912C1369.02 236.04 1368.96 236.936 1368.83 238.6H1342.78C1343.25 240.733 1344.36 242.419 1346.11 243.656C1347.86 244.893 1350.04 245.512 1352.64 245.512C1354.43 245.512 1356.01 245.256 1357.38 244.744C1358.78 244.189 1360.08 243.336 1361.28 242.184L1366.59 247.944C1363.35 251.656 1358.61 253.512 1352.38 253.512C1348.5 253.512 1345.07 252.765 1342.08 251.272C1339.09 249.736 1336.79 247.624 1335.17 244.936C1333.55 242.248 1332.74 239.197 1332.74 235.784C1332.74 232.413 1333.52 229.384 1335.1 226.696C1336.72 223.965 1338.92 221.853 1341.7 220.36C1344.51 218.824 1347.65 218.056 1351.1 218.056C1354.47 218.056 1357.52 218.781 1360.26 220.232C1362.99 221.683 1365.12 223.773 1366.66 226.504C1368.23 229.192 1369.02 232.328 1369.02 235.912ZM1351.17 225.608C1348.91 225.608 1347.01 226.248 1345.47 227.528C1343.94 228.808 1343 230.557 1342.66 232.776H1359.62C1359.27 230.6 1358.34 228.872 1356.8 227.592C1355.26 226.269 1353.39 225.608 1351.17 225.608ZM1375.67 205.512H1385.65V253H1375.67V205.512ZM1394.92 205.512H1404.9V253H1394.92V205.512ZM1430.55 253.512C1426.93 253.512 1423.66 252.765 1420.76 251.272C1417.9 249.736 1415.66 247.624 1414.04 244.936C1412.42 242.248 1411.61 239.197 1411.61 235.784C1411.61 232.371 1412.42 229.32 1414.04 226.632C1415.66 223.944 1417.9 221.853 1420.76 220.36C1423.66 218.824 1426.93 218.056 1430.55 218.056C1434.18 218.056 1437.42 218.824 1440.28 220.36C1443.14 221.853 1445.38 223.944 1447 226.632C1448.62 229.32 1449.43 232.371 1449.43 235.784C1449.43 239.197 1448.62 242.248 1447 244.936C1445.38 247.624 1443.14 249.736 1440.28 251.272C1437.42 252.765 1434.18 253.512 1430.55 253.512ZM1430.55 245.32C1433.11 245.32 1435.21 244.467 1436.83 242.76C1438.49 241.011 1439.32 238.685 1439.32 235.784C1439.32 232.883 1438.49 230.579 1436.83 228.872C1435.21 227.123 1433.11 226.248 1430.55 226.248C1427.99 226.248 1425.88 227.123 1424.22 228.872C1422.55 230.579 1421.72 232.883 1421.72 235.784C1421.72 238.685 1422.55 241.011 1424.22 242.76C1425.88 244.467 1427.99 245.32 1430.55 245.32ZM1459.51 241.096C1461.3 241.096 1462.77 241.672 1463.93 242.824C1465.08 243.933 1465.65 245.405 1465.65 247.24C1465.65 248.093 1465.55 248.947 1465.33 249.8C1465.12 250.653 1464.65 251.933 1463.93 253.64L1460.28 262.856H1453.94L1456.76 252.68C1455.69 252.253 1454.84 251.571 1454.2 250.632C1453.6 249.651 1453.3 248.52 1453.3 247.24C1453.3 245.405 1453.88 243.933 1455.03 242.824C1456.23 241.672 1457.72 241.096 1459.51 241.096ZM1545.84 218.568L1533.36 253H1523.76L1516.02 231.624L1508.02 253H1498.42L1486 218.568H1495.41L1503.54 241.864L1511.99 218.568H1520.43L1528.63 241.864L1537.01 218.568H1545.84ZM1565.93 253.512C1562.3 253.512 1559.04 252.765 1556.14 251.272C1553.28 249.736 1551.04 247.624 1549.42 244.936C1547.8 242.248 1546.99 239.197 1546.99 235.784C1546.99 232.371 1547.8 229.32 1549.42 226.632C1551.04 223.944 1553.28 221.853 1556.14 220.36C1559.04 218.824 1562.3 218.056 1565.93 218.056C1569.56 218.056 1572.8 218.824 1575.66 220.36C1578.52 221.853 1580.76 223.944 1582.38 226.632C1584 229.32 1584.81 232.371 1584.81 235.784C1584.81 239.197 1584 242.248 1582.38 244.936C1580.76 247.624 1578.52 249.736 1575.66 251.272C1572.8 252.765 1569.56 253.512 1565.93 253.512ZM1565.93 245.32C1568.49 245.32 1570.58 244.467 1572.2 242.76C1573.87 241.011 1574.7 238.685 1574.7 235.784C1574.7 232.883 1573.87 230.579 1572.2 228.872C1570.58 227.123 1568.49 226.248 1565.93 226.248C1563.37 226.248 1561.26 227.123 1559.59 228.872C1557.93 230.579 1557.1 232.883 1557.1 235.784C1557.1 238.685 1557.93 241.011 1559.59 242.76C1561.26 244.467 1563.37 245.32 1565.93 245.32ZM1601.02 223.112C1602.21 221.448 1603.81 220.189 1605.82 219.336C1607.87 218.483 1610.21 218.056 1612.86 218.056V227.272C1611.75 227.187 1611 227.144 1610.62 227.144C1607.76 227.144 1605.52 227.955 1603.9 229.576C1602.28 231.155 1601.47 233.544 1601.47 236.744V253H1591.48V218.568H1601.02V223.112ZM1618.8 205.512H1628.78V253H1618.8V205.512ZM1673.12 205.512V253H1663.58V249.032C1661.11 252.019 1657.52 253.512 1652.83 253.512C1649.59 253.512 1646.64 252.787 1644 251.336C1641.39 249.885 1639.35 247.816 1637.85 245.128C1636.36 242.44 1635.61 239.325 1635.61 235.784C1635.61 232.243 1636.36 229.128 1637.85 226.44C1639.35 223.752 1641.39 221.683 1644 220.232C1646.64 218.781 1649.59 218.056 1652.83 218.056C1657.22 218.056 1660.66 219.443 1663.13 222.216V205.512H1673.12ZM1654.56 245.32C1657.07 245.32 1659.17 244.467 1660.83 242.76C1662.49 241.011 1663.33 238.685 1663.33 235.784C1663.33 232.883 1662.49 230.579 1660.83 228.872C1659.17 227.123 1657.07 226.248 1654.56 226.248C1652 226.248 1649.89 227.123 1648.22 228.872C1646.56 230.579 1645.73 232.883 1645.73 235.784C1645.73 238.685 1646.56 241.011 1648.22 242.76C1649.89 244.467 1652 245.32 1654.56 245.32ZM1681.08 208.2H1692.98L1691 237.448H1683.06L1681.08 208.2ZM1687.03 253.512C1685.28 253.512 1683.81 252.957 1682.61 251.848C1681.46 250.696 1680.89 249.309 1680.89 247.688C1680.89 246.067 1681.46 244.723 1682.61 243.656C1683.77 242.547 1685.24 241.992 1687.03 241.992C1688.82 241.992 1690.29 242.547 1691.45 243.656C1692.6 244.723 1693.17 246.067 1693.17 247.688C1693.17 249.309 1692.58 250.696 1691.38 251.848C1690.23 252.957 1688.78 253.512 1687.03 253.512ZM1705.07 205C1706.87 205 1708.34 205.576 1709.49 206.728C1710.64 207.837 1711.22 209.309 1711.22 211.144C1711.22 211.997 1711.11 212.851 1710.9 213.704C1710.68 214.557 1710.24 215.837 1709.55 217.544L1705.84 226.76H1699.51L1702.26 216.648C1701.19 216.179 1700.36 215.475 1699.76 214.536C1699.16 213.597 1698.87 212.467 1698.87 211.144C1698.87 209.309 1699.44 207.837 1700.59 206.728C1701.79 205.576 1703.28 205 1705.07 205ZM1720.18 205C1721.97 205 1723.44 205.576 1724.59 206.728C1725.75 207.837 1726.32 209.309 1726.32 211.144C1726.32 211.997 1726.21 212.851 1726 213.704C1725.79 214.557 1725.34 215.837 1724.66 217.544L1720.95 226.76H1714.61L1717.36 216.648C1716.29 216.179 1715.46 215.475 1714.87 214.536C1714.27 213.597 1713.97 212.467 1713.97 211.144C1713.97 209.309 1714.55 207.837 1715.7 206.728C1716.89 205.576 1718.39 205 1720.18 205ZM1729.14 265.416C1731.83 260.68 1733.79 255.88 1735.03 251.016C1736.31 246.109 1736.95 240.925 1736.95 235.464C1736.95 230.003 1736.31 224.84 1735.03 219.976C1733.79 215.069 1731.83 210.248 1729.14 205.512H1738.68C1741.28 209.309 1743.26 213.789 1744.63 218.952C1746.04 224.072 1746.74 229.576 1746.74 235.464C1746.74 241.352 1746.06 246.856 1744.69 251.976C1743.33 257.053 1741.32 261.533 1738.68 265.416H1729.14Z" fill="#FADAFF"/>
<defs>
<linearGradient id="paint0_linear" x1="943.5" y1="0" x2="943.5" y2="461" gradientUnits="userSpaceOnUse">
<stop stop-color="#4C21D7"/>
<stop offset="1" stop-color="#9D21D7"/>
</linearGradient>
<linearGradient id="paint1_linear" x1="943.5" y1="0" x2="943.5" y2="461" gradientUnits="userSpaceOnUse">
<stop stop-color="#4C21D7"/>
<stop offset="1" stop-color="#9D21D7"/>
</linearGradient>
</defs>
</svg>
