<svg width="872" height="705" viewBox="0 0 872 705" fill="none" xmlns="http://www.w3.org/2000/svg">
<path opacity="0.34" d="M782.051 705H77.4542C68.4646 705 61.182 697.717 61.182 688.728C61.182 679.738 68.4646 672.456 77.4542 672.456H782.051C791.041 672.456 798.324 679.738 798.324 688.728C798.324 697.717 791.041 705 782.051 705Z" fill="black"/>
<path d="M833.826 490.617H690.563C675.998 490.617 664.163 478.783 664.163 464.217C664.163 449.652 675.998 437.818 690.563 437.818H770.558C787.855 437.818 801.851 423.821 801.851 406.525C801.851 389.229 787.855 375.232 770.558 375.232H699.439C679.98 375.232 664.163 359.415 664.163 339.957C664.163 320.498 679.98 304.681 699.439 304.681H778.524C795.82 304.681 809.93 290.571 809.93 273.275C809.93 255.979 795.82 241.869 778.524 241.869H664.277H636.967C619.671 241.869 605.561 227.758 605.561 210.462C605.561 193.166 619.671 179.056 636.967 179.056H667.918C685.215 179.056 699.325 164.945 699.325 147.649C699.325 130.353 685.215 116.243 667.918 116.243H650.281H647.322H460.363H453.99H258.724H214.004C196.708 116.243 182.598 130.353 182.598 147.649C182.598 164.945 196.708 179.056 214.004 179.056H227.318C244.614 179.056 258.724 193.166 258.724 210.462C258.724 227.758 244.614 241.869 227.318 241.869H107.495C94.1815 241.869 83.3713 252.679 83.3713 265.992C83.3713 279.306 94.1815 290.116 107.495 290.116H233.69C247.572 290.116 258.838 301.382 258.838 315.264C258.838 329.147 247.572 340.412 233.69 340.412H32.2789C14.9826 340.412 0.872452 354.522 0.872452 371.818C0.872452 389.115 14.9826 403.225 32.2789 403.225H227.318C244.614 403.225 258.724 417.335 258.724 434.631C258.724 451.928 244.614 466.038 227.318 466.038H109.543C81.7782 466.038 59.2475 488.569 59.2475 516.334C59.2475 544.099 81.7782 566.63 109.543 566.63H258.724H324.951H362.161H664.277H833.826C854.764 566.63 871.719 549.675 871.719 528.737C871.719 507.572 854.764 490.617 833.826 490.617Z" fill="#4C21D7"/>
<path d="M568.018 688.755H588.501V380.608H568.018V688.755Z" fill="#2F262D"/>
<path d="M490.062 442.711C486.763 435.314 490.062 426.552 497.573 423.139C499.507 422.342 501.555 421.887 503.604 421.887C509.407 421.887 514.755 425.301 517.145 430.649L589.971 594.736L562.889 606.798L490.062 442.711Z" fill="#FC9F6F"/>
<path d="M368.311 688.755H388.793L388.793 380.608H368.311L368.311 688.755Z" fill="#2F262D"/>
<path d="M463.094 400.721C392.657 400.721 335.647 347.012 335.647 280.899C335.647 263.83 339.516 247.558 346.344 232.765C301.51 251.313 270.217 293.53 270.217 342.46C270.217 408.687 327.227 462.283 397.664 462.283C449.894 462.283 494.728 432.811 514.414 390.594C498.597 397.08 481.3 400.721 463.094 400.721Z" fill="#F2F2F2"/>
<path d="M392.543 433.152C431.067 433.152 462.297 404.469 462.297 369.087C462.297 333.705 431.067 305.023 392.543 305.023C354.019 305.023 322.789 333.705 322.789 369.087C322.789 404.469 354.019 433.152 392.543 433.152Z" fill="#3B323A"/>
<path d="M266.917 380.581H110.909C104.992 380.581 100.099 375.687 100.099 369.77V359.529C100.099 353.612 104.992 348.719 110.909 348.719H266.917C272.834 348.719 277.727 353.612 277.727 359.529V369.77C277.727 375.687 272.834 380.581 266.917 380.581Z" fill="#AFAFAF"/>
<path d="M452.966 320.271C431.118 320.271 413.367 302.519 413.367 280.671V241.072C413.367 225.938 401.191 213.762 386.057 213.762V280.671C386.057 317.654 415.984 347.581 452.966 347.581H508.383V320.271H452.966Z" fill="#EF9067"/>
<path d="M461.956 111.236C457.859 163.011 412.343 220.362 369.785 213.079C329.047 206.138 301.054 141.846 314.823 96.7843C323.358 69.0191 346.799 51.609 365.688 37.6127C385.26 23.0473 398.46 13.2613 413.481 15.6509C443.294 20.2026 465.256 70.0433 461.956 111.236Z" fill="#603936"/>
<path d="M404.491 258.596C403.694 257.686 397.322 250.289 396.184 249.265C393.226 237.089 387.195 223.662 388.446 207.959C379.912 201.7 365.802 193.735 349.757 194.873C344.978 195.214 339.971 196.352 337.468 196.921C323.585 200.107 314.823 205.228 311.978 206.935C308.11 209.324 306.175 210.462 303.899 212.738C297.754 219.11 296.275 226.848 295.479 231.4C288.651 270.999 293.999 309.006 294.682 312.306C295.934 318.337 297.641 323.685 297.641 323.685C300.485 332.674 303.899 338.25 304.81 340.753C309.361 353.043 319.716 378.874 330.64 398.56C338.606 399.811 356.698 407.777 368.647 403.68C386.853 397.422 424.404 383.425 437.832 380.58C421.104 361.805 405.743 340.867 401.76 315.378C400.736 308.778 399.825 302.292 399.143 295.92C400.736 295.123 410.408 290.23 412.343 280.444C414.391 269.861 406.084 260.417 404.491 258.596Z" fill="#F05364"/>
<path d="M363.398 234.577C373.326 231.808 378.76 220.192 375.535 208.63C372.311 197.068 361.65 189.94 351.723 192.708C341.795 195.476 336.361 207.093 339.585 218.655C342.809 230.217 353.471 237.345 363.398 234.577Z" fill="#EF9067"/>
<path d="M354.65 187.818C360.909 202.611 371.264 207.731 377.864 211.6C390.722 219.11 414.846 218.428 414.846 218.428C415.643 213.193 416.439 208.641 420.536 199.993C426.453 187.135 431.915 184.063 439.539 172.456C450.918 154.932 456.608 133.767 452.966 131.718C450.349 130.125 443.18 138.318 438.515 143.098C425.201 156.753 395.388 177.007 354.65 187.818Z" fill="#603936"/>
<path d="M354.195 220.362H349.416C338.947 220.362 330.526 211.941 330.526 201.473V129.67H368.305V206.138C368.305 213.99 361.933 220.362 354.195 220.362Z" fill="#EF9067"/>
<path d="M141.5 688.755H161.982L161.982 380.608H141.5L141.5 688.755Z" fill="#2F262D"/>
<path d="M267.479 688.755H287.961L287.961 380.608H267.479L267.479 688.755Z" fill="#494149"/>
<path d="M691.303 688.755H711.786V380.608H691.303V688.755Z" fill="#494149"/>
<path opacity="0.71" d="M330.526 137.294C333.03 159.028 348.05 177.007 368.305 183.835V125.346H330.526V137.294Z" fill="#D36B46"/>
<path d="M386.057 180.99C358.292 180.99 335.875 158.573 335.875 130.808V69.588C335.875 66.9708 337.923 64.9226 340.54 64.9226H411.888C425.315 64.9226 436.239 75.8466 436.239 89.274V130.808C436.239 158.573 413.822 180.99 386.057 180.99Z" fill="#FC9F6F"/>
<path d="M436.239 123.639C435.67 125.005 434.304 125.915 432.825 125.915H410.75C408.702 125.915 406.995 124.208 406.995 122.16V109.757C406.995 107.708 408.702 106.001 410.75 106.001H432.825C434.304 106.001 435.67 106.912 436.239 108.277V103.498C435.215 102.929 434.077 102.588 432.825 102.588H410.75C406.767 102.588 403.581 105.774 403.581 109.757V122.16C403.581 126.143 406.767 129.329 410.75 129.329H432.825C434.077 129.329 435.215 128.987 436.239 128.418V123.639Z" fill="#DD9883"/>
<path d="M391.86 127.508H369.785C366.712 127.508 364.323 125.004 364.323 122.046V109.643C364.323 106.57 366.826 104.181 369.785 104.181H391.86C394.933 104.181 397.322 106.684 397.322 109.643V122.046C397.322 125.118 394.819 127.508 391.86 127.508Z" stroke="#DD9883" stroke-width="3" stroke-miterlimit="10" stroke-linecap="round" stroke-linejoin="round"/>
<path opacity="0.6" d="M367.054 140.366V79.1465C367.054 76.5293 369.102 74.481 371.719 74.481L412.912 60.0295C408.474 54.2261 419.739 65.0363 411.888 65.0363H340.54C337.923 65.0363 335.875 67.0846 335.875 69.7018V130.922C335.875 158.687 358.292 181.104 386.057 181.104C386.626 181.104 387.195 181.104 387.878 181.104C375.247 171.887 367.054 157.094 367.054 140.366Z" fill="#EF9067"/>
<path d="M432.825 125.232H410.75C407.677 125.232 405.288 122.729 405.288 119.77V107.367C405.288 104.294 407.791 101.905 410.75 101.905H432.825C435.897 101.905 438.287 104.408 438.287 107.367V119.77C438.287 122.842 435.784 125.232 432.825 125.232Z" stroke="#F6CDF7" stroke-width="3" stroke-miterlimit="10" stroke-linecap="round" stroke-linejoin="round"/>
<path d="M399.143 155.728C392.771 155.728 387.65 150.608 387.65 144.349V139.001H410.408V144.349C410.408 150.608 405.401 155.728 399.143 155.728Z" fill="#FCFAFA"/>
<path d="M378.547 112.146H388.788" stroke="#161515" stroke-width="3" stroke-miterlimit="10" stroke-linecap="round" stroke-linejoin="round"/>
<path d="M417.236 112.146H427.477" stroke="#161515" stroke-width="3" stroke-miterlimit="10" stroke-linecap="round" stroke-linejoin="round"/>
<path d="M391.86 125.232H369.785C366.712 125.232 364.323 122.729 364.323 119.77V107.367C364.323 104.294 366.826 101.905 369.785 101.905H391.86C394.933 101.905 397.322 104.408 397.322 107.367V119.77C397.322 122.842 394.819 125.232 391.86 125.232Z" stroke="#F6CDF7" stroke-width="3" stroke-miterlimit="10" stroke-linecap="round" stroke-linejoin="round"/>
<path d="M407.108 18.8371C393.339 1.08563 369.898 1.42701 365.574 0.971841C361.705 0.1753 340.426 1.19943 324.837 5.29592C288.879 14.8544 263.845 47.3988 263.845 84.7224V132.515C263.845 164.604 287.513 203.521 317.896 213.648C334.737 219.338 353.399 223.662 357.837 222.979C335.306 181.218 338.378 156.525 344.75 142.073C359.999 106.798 404.719 108.05 415.756 68.7916C415.984 67.6537 422.925 39.3196 407.108 18.8371Z" fill="#754743"/>
<path d="M547.527 347.239C548.665 344.281 549.234 341.095 549.234 337.795C549.234 322.66 537.058 310.485 521.924 310.485C506.79 310.485 494.614 322.66 494.614 337.795C494.614 341.095 495.183 344.281 496.321 347.239H547.527Z" fill="#EF9067"/>
<path d="M459.908 348.719C457.632 338.25 445.001 330.285 429.639 330.285C414.391 330.285 401.646 338.25 399.371 348.719H459.908Z" fill="#F4EFF0"/>
<path d="M310.044 269.065C319.22 269.065 326.658 257.398 326.658 243.006C326.658 228.615 319.22 216.948 310.044 216.948C300.869 216.948 293.431 228.615 293.431 243.006C293.431 257.398 300.869 269.065 310.044 269.065Z" fill="#EF9067"/>
<path d="M360.34 321.181C338.492 321.181 320.741 303.43 320.741 281.582V233.22C320.741 225.71 314.596 219.565 307.086 219.565C299.575 219.565 293.431 225.71 293.431 233.22V281.582C293.431 318.564 323.358 348.491 360.34 348.491H415.757V321.181H387.991H360.34Z" fill="#FC9F6F"/>
<path d="M590.427 348.719H462.98C461.387 348.719 460.021 347.353 460.021 345.76C460.021 344.167 461.387 342.802 462.98 342.802H590.54C592.133 342.802 593.499 344.167 593.499 345.76C593.499 347.353 592.133 348.719 590.427 348.719Z" fill="white"/>
<path d="M590.426 345.76H462.98C461.842 345.76 460.932 345.191 460.363 344.281C460.135 344.736 459.908 345.191 459.908 345.76C459.908 347.353 461.273 348.719 462.866 348.719H590.426C592.02 348.719 593.385 347.353 593.385 345.76C593.385 345.191 593.271 344.736 592.93 344.281C592.475 345.077 591.564 345.76 590.426 345.76Z" fill="#F4EFF0"/>
<path d="M487.673 348.719H462.98C461.387 348.719 460.021 347.353 460.021 345.76C460.021 344.167 461.387 342.802 462.98 342.802H487.673C489.266 342.802 490.631 344.167 490.631 345.76C490.631 347.353 489.38 348.719 487.673 348.719Z" fill="#F4EFF0"/>
<path d="M581.437 342.802H572.106V340.64C572.106 339.502 573.016 338.477 574.268 338.477H579.275C580.413 338.477 581.437 339.388 581.437 340.64V342.802Z" fill="#F4EFF0"/>
<path d="M570.058 342.802H560.727V340.64C560.727 339.502 561.637 338.477 562.889 338.477H567.896C569.034 338.477 570.058 339.388 570.058 340.64V342.802Z" fill="#F4EFF0"/>
<path d="M558.679 342.802H549.348V340.64C549.348 339.502 550.258 338.477 551.51 338.477H556.516C557.654 338.477 558.679 339.388 558.679 340.64V342.802Z" fill="#F4EFF0"/>
<path d="M547.299 342.802H537.969V340.64C537.969 339.502 538.879 338.477 540.131 338.477H545.137C546.275 338.477 547.299 339.388 547.299 340.64V342.802Z" fill="#F4EFF0"/>
<path d="M535.92 342.802H526.589V340.64C526.589 339.502 527.5 338.477 528.751 338.477H533.758C534.896 338.477 535.92 339.388 535.92 340.64V342.802Z" fill="#F4EFF0"/>
<path d="M524.541 342.802H515.21V340.64C515.21 339.502 516.121 338.477 517.372 338.477H522.379C523.517 338.477 524.541 339.388 524.541 340.64V342.802Z" fill="#F4EFF0"/>
<path d="M513.162 342.802H503.831V340.64C503.831 339.502 504.742 338.477 505.993 338.477H511C512.138 338.477 513.162 339.388 513.162 340.64V342.802Z" fill="#F4EFF0"/>
<path d="M501.783 342.802H492.452V340.64C492.452 339.502 493.362 338.477 494.614 338.477H499.621C500.759 338.477 501.783 339.388 501.783 340.64V342.802Z" fill="#F4EFF0"/>
<path d="M490.404 342.802H481.073V340.64C481.073 339.502 481.983 338.477 483.235 338.477H488.242C489.379 338.477 490.404 339.388 490.404 340.64V342.802Z" fill="#F4EFF0"/>
<path d="M479.025 342.802H469.694V340.64C469.694 339.502 470.604 338.478 471.856 338.478H476.863C478 338.478 479.025 339.388 479.025 340.64V342.802Z" fill="#F4EFF0"/>
<path d="M462.98 348.719H487.673C489.266 348.719 490.631 347.353 490.631 345.76H459.908C459.908 347.353 461.273 348.719 462.98 348.719Z" fill="#E2E2E2"/>
<path d="M474.018 441.118H384.009L383.326 393.325H494.842C502.352 393.325 508.383 399.356 508.383 406.866C508.269 425.869 492.907 441.118 474.018 441.118Z" fill="#352934"/>
<path d="M401.646 614.422L456.835 427.804C458.656 421.545 464.459 417.221 471.059 417.221C472.425 417.221 473.904 417.449 475.269 417.79C483.121 420.066 487.559 428.373 485.283 436.224L430.094 622.843L401.646 614.422Z" fill="#EF9067"/>
<path d="M447.504 599.174L401.646 585.633L459.452 390.252C463.207 377.622 476.521 370.339 489.152 374.094C501.783 377.849 509.065 391.163 505.31 403.794L447.504 599.174Z" fill="#352934"/>
<path d="M675.315 293.416H484.145C480.39 293.416 477.318 290.344 477.318 286.589L500.986 150.039C500.986 146.284 504.059 143.211 507.814 143.211H698.984C702.739 143.211 705.811 146.284 705.811 150.039L682.143 286.589C682.143 290.344 679.184 293.416 675.315 293.416Z" fill="#CECECE"/>
<path d="M686.694 293.416H495.524C491.769 293.416 488.697 290.344 488.697 286.588L512.365 150.039C512.365 146.284 515.438 143.211 519.193 143.211H710.363C714.118 143.211 717.19 146.284 717.19 150.039L693.522 286.588C693.522 290.344 690.563 293.416 686.694 293.416Z" fill="#F4EFF0"/>
<path d="M628.319 341.322L612.616 261.782H584.623C581.209 261.782 578.592 264.968 579.275 268.268L593.157 338.477C593.726 341.095 591.678 343.484 589.061 343.484H571.992C568.92 343.484 566.53 345.988 566.53 348.946H595.206H621.833C626.043 349.06 629.116 345.305 628.319 341.322Z" fill="#CECECE"/>
<path d="M629.798 349.06H600.782L583.94 263.716C583.713 262.692 584.509 261.896 585.534 261.896H618.192L634.35 343.712C634.805 346.443 632.643 349.06 629.798 349.06Z" fill="#F4EFF0"/>
<path d="M595.32 349.06H600.782L599.302 341.322H593.726L595.32 349.06Z" fill="#F4EFF0"/>
<path d="M595.32 349.06C598.164 349.06 600.326 346.443 599.757 343.598L599.302 341.322H593.157L595.32 349.06Z" fill="#CECECE"/>
<path d="M620.354 221.045C614.209 221.045 609.202 216.038 609.202 209.893C609.202 207.845 609.771 206.024 610.681 204.431C609.088 203.976 607.381 203.634 605.561 203.634C595.888 203.634 588.151 211.486 588.151 221.045C588.151 230.603 596.002 238.455 605.561 238.455C615.233 238.455 622.971 230.603 622.971 221.045C622.971 220.931 622.971 220.817 622.971 220.703C622.06 220.931 621.264 221.045 620.354 221.045Z" fill="#CECECE"/>
<path d="M488.014 415.059L394.25 439.752C368.76 446.465 342.93 428.373 330.526 398.445L475.838 368.746C488.583 365.446 501.669 373.07 504.969 385.815C508.383 398.673 500.759 411.759 488.014 415.059Z" fill="#3B323A"/>
<path d="M582.347 557.298L538.651 576.757L462.07 404.476C456.722 392.414 462.184 378.304 474.245 372.956C486.307 367.608 500.418 373.07 505.766 385.132L582.347 557.298Z" fill="#3B323A"/>
<path d="M257.472 380.581H744.728C750.645 380.581 755.538 375.687 755.538 369.77V359.529C755.538 353.612 750.645 348.719 744.728 348.719H257.472C251.555 348.719 246.662 353.612 246.662 359.529V369.77C246.662 375.687 251.441 380.581 257.472 380.581Z" fill="#F2F2F2"/>
<path d="M653.581 612.715L556.744 630.353C552.989 631.036 549.461 628.646 548.665 625.118L547.982 622.046C546.048 613.17 551.737 604.181 561.068 601.791L631.619 583.926C645.274 580.512 659.043 586.771 661.546 598.264L662.457 602.36C663.481 607.026 659.498 611.691 653.581 612.715Z" fill="#535452"/>
<path d="M657.336 603.953L549.12 623.639C548.893 623.639 548.665 623.753 548.438 623.753L548.779 625.118C549.575 628.76 553.103 631.035 556.858 630.353L653.695 612.715C659.612 611.691 663.708 607.025 662.684 602.36L662.57 602.019C660.977 602.929 659.271 603.612 657.336 603.953Z" fill="#FFFDFD"/>
<path d="M453.649 673.594L372.743 617.608C369.671 615.446 368.76 611.236 370.809 608.164L372.516 605.433C377.409 597.809 387.877 595.419 396.07 600.426L458.542 637.749C470.718 645.032 475.952 659.256 469.58 669.042L467.304 672.57C464.801 676.552 458.542 677.007 453.649 673.594Z" fill="#424441"/>
<path d="M462.525 670.066L372.061 607.481C371.833 607.367 371.719 607.139 371.492 607.026L370.809 608.163C368.874 611.236 369.671 615.446 372.743 617.608L453.649 673.594C458.542 677.007 464.801 676.552 467.304 672.57L467.532 672.228C465.825 671.887 464.118 671.09 462.525 670.066Z" fill="#CECECE"/>
<path d="M229.593 348.719H211.159C201.828 348.719 194.204 341.095 194.204 331.764V281.582H246.548V331.764C246.662 341.095 239.038 348.719 229.593 348.719Z" fill="#FF6161"/>
<path d="M200.121 288.409C187.946 288.409 178.16 298.309 178.16 310.371C178.16 322.433 188.06 332.333 200.121 332.333C212.183 332.333 222.083 322.433 222.083 310.371C222.083 298.309 212.183 288.409 200.121 288.409ZM200.121 327.554C190.677 327.554 182.939 319.816 182.939 310.371C182.939 300.926 190.677 293.188 200.121 293.188C209.566 293.188 217.304 300.926 217.304 310.371C217.19 319.929 209.566 327.554 200.121 327.554Z" fill="#F4A36C"/>
<path d="M229.593 348.719H211.159C201.828 348.719 194.204 341.095 194.204 331.764V281.582H246.548V331.764C246.662 341.095 239.038 348.719 229.593 348.719Z" fill="#F7BC8B"/>
<path d="M219.011 332.788C213.776 332.788 209.566 328.578 209.566 323.343V281.582H194.204V331.764C194.204 341.095 201.828 348.719 211.159 348.719H229.593C238.583 348.719 245.979 341.664 246.548 332.788H219.011Z" fill="#EFA573"/>
<path d="M436.011 348.719C437.149 345.76 437.718 342.574 437.718 339.274C437.718 324.14 425.543 311.964 410.408 311.964C395.274 311.964 383.098 324.14 383.098 339.274C383.098 342.574 383.667 345.76 384.805 348.719H436.011Z" fill="#FC9F6F"/>
<path opacity="0.77" d="M214.687 272.478C218.772 272.478 222.083 269.167 222.083 265.082C222.083 260.997 218.772 257.686 214.687 257.686C210.602 257.686 207.29 260.997 207.29 265.082C207.29 269.167 210.602 272.478 214.687 272.478Z" fill="#F2F2F2"/>
<path opacity="0.77" d="M228.342 250.289C234.438 250.289 239.379 245.347 239.379 239.251C239.379 233.155 234.438 228.213 228.342 228.213C222.246 228.213 217.304 233.155 217.304 239.251C217.304 245.347 222.246 250.289 228.342 250.289Z" fill="#F2F2F2"/>
<path d="M120.354 179.056C137.699 179.056 151.76 164.994 151.76 147.649C151.76 130.304 137.699 116.243 120.354 116.243C103.008 116.243 88.9471 130.304 88.9471 147.649C88.9471 164.994 103.008 179.056 120.354 179.056Z" fill="#4C21D7"/>
</svg>
