<svg width="280" height="125" viewBox="0 0 280 125" fill="none" xmlns="http://www.w3.org/2000/svg">
<mask id="mask0" mask-type="alpha" maskUnits="userSpaceOnUse" x="0" y="0" width="280" height="125">
<rect width="280" height="125" fill="url(#paint0_linear)"/>
</mask>
<g mask="url(#mask0)">
<path d="M249.644 157.887H210.491C206.51 157.887 203.276 154.652 203.276 150.672C203.276 146.691 206.51 143.457 210.491 143.457H232.353C237.08 143.457 240.905 139.632 240.905 134.905C240.905 130.178 237.08 126.352 232.353 126.352H212.916C207.598 126.352 203.276 122.03 203.276 116.712C203.276 111.394 207.598 107.071 212.916 107.071H234.53C239.257 107.071 243.113 103.215 243.113 98.4878C243.113 93.7608 239.257 89.9045 234.53 89.9045H203.307H195.843C191.116 89.9045 187.26 86.0482 187.26 81.3212C187.26 76.5942 191.116 72.7379 195.843 72.7379H204.302C209.029 72.7379 212.885 68.8816 212.885 64.1546C212.885 59.4276 209.029 55.5713 204.302 55.5713H199.482H198.673H147.577H145.836H92.4701H80.2483C75.5212 55.5713 71.665 59.4276 71.665 64.1546C71.665 68.8816 75.5212 72.7379 80.2483 72.7379H83.8868C88.6139 72.7379 92.4701 76.5942 92.4701 81.3212C92.4701 86.0482 88.6139 89.9045 83.8868 89.9045H51.1397C47.5011 89.9045 44.5467 92.8589 44.5467 96.4975C44.5467 100.136 47.5011 103.09 51.1397 103.09H85.6284C89.4224 103.09 92.5012 106.169 92.5012 109.963C92.5012 113.757 89.4224 116.836 85.6284 116.836H30.5833C25.8563 116.836 22 120.692 22 125.419C22 130.146 25.8563 134.003 30.5833 134.003H83.8868C88.6139 134.003 92.4701 137.859 92.4701 142.586C92.4701 147.313 88.6139 151.169 83.8868 151.169H51.6995C44.1113 151.169 37.9537 157.327 37.9537 164.915C37.9537 172.503 44.1113 178.661 51.6995 178.661H92.4701H110.57H120.739H203.307H249.644C255.366 178.661 260 174.027 260 168.305C260 162.52 255.366 157.887 249.644 157.887Z" fill="#4C21D7"/>
<path d="M148.324 133.319C129.074 133.319 113.493 118.64 113.493 100.571C113.493 95.9065 114.55 91.4594 116.416 87.4165C104.163 92.4856 95.6111 104.023 95.6111 117.396C95.6111 135.495 111.192 150.143 130.442 150.143C144.716 150.143 156.969 142.088 162.349 130.551C158.027 132.323 153.3 133.319 148.324 133.319Z" fill="#F2F2F2"/>
<path d="M129.042 142.182C139.571 142.182 148.106 134.343 148.106 124.673C148.106 115.003 139.571 107.165 129.042 107.165C118.514 107.165 109.979 115.003 109.979 124.673C109.979 134.343 118.514 142.182 129.042 142.182Z" fill="#3B323A"/>
<path d="M94.7092 127.814H52.0726C50.4555 127.814 49.1182 126.477 49.1182 124.86V122.061C49.1182 120.444 50.4555 119.107 52.0726 119.107H94.7092C96.3264 119.107 97.6636 120.444 97.6636 122.061V124.86C97.6636 126.477 96.3264 127.814 94.7092 127.814Z" fill="#AFAFAF"/>
<path d="M145.556 111.332C139.585 111.332 134.734 106.48 134.734 100.509V89.6869C134.734 85.5507 131.406 82.2231 127.27 82.2231V100.509C127.27 110.616 135.449 118.795 145.556 118.795H160.701V111.332H145.556Z" fill="#EF9067"/>
<path d="M148.013 54.2032C146.893 68.3532 134.454 84.027 122.823 82.0367C111.689 80.1397 104.039 62.5688 107.802 50.2536C110.134 42.6655 116.541 37.9073 121.703 34.0822C127.052 30.1015 130.66 27.427 134.765 28.0801C142.913 29.324 148.915 42.9453 148.013 54.2032Z" fill="#603936"/>
<path d="M132.308 94.4761C132.09 94.2273 130.349 92.2058 130.038 91.926C129.229 88.5984 127.581 84.9287 127.923 80.6371C125.59 78.9266 121.734 76.7497 117.349 77.0607C116.043 77.154 114.675 77.465 113.991 77.6205C110.196 78.4912 107.802 79.8907 107.024 80.3572C105.967 81.0102 105.438 81.3212 104.816 81.9432C103.137 83.6847 102.733 85.7995 102.515 87.0434C100.649 97.8659 102.111 108.253 102.297 109.155C102.639 110.803 103.106 112.265 103.106 112.265C103.883 114.721 104.816 116.245 105.065 116.929C106.309 120.288 109.139 127.348 112.125 132.728C114.302 133.07 119.246 135.247 122.512 134.127C127.487 132.417 137.75 128.592 141.42 127.814C136.848 122.683 132.65 116.961 131.561 109.994C131.282 108.191 131.033 106.418 130.846 104.677C131.282 104.459 133.925 103.122 134.454 100.447C135.013 97.5549 132.743 94.9737 132.308 94.4761Z" fill="#F05364"/>
<path d="M121.077 87.9118C123.79 87.1552 125.276 83.9804 124.394 80.8206C123.513 77.6608 120.599 75.7126 117.886 76.4692C115.173 77.2258 113.688 80.4006 114.569 83.5604C115.45 86.7202 118.364 88.6684 121.077 87.9118Z" fill="#EF9067"/>
<path d="M118.687 75.1326C120.397 79.1755 123.227 80.575 125.031 81.6323C128.545 83.6848 135.138 83.4983 135.138 83.4983C135.356 82.0677 135.573 80.8238 136.693 78.4602C138.31 74.9461 139.803 74.1064 141.886 70.9343C144.996 66.1451 146.551 60.3607 145.556 59.8009C144.841 59.3655 142.882 61.6046 141.606 62.9108C137.968 66.6426 129.82 72.1783 118.687 75.1326Z" fill="#603936"/>
<path d="M118.562 84.027H117.256C114.395 84.027 112.094 81.7257 112.094 78.8646V59.2412H122.418V80.1397C122.418 82.2855 120.677 84.027 118.562 84.027Z" fill="#EF9067"/>
<path opacity="0.71" d="M112.094 61.3247C112.778 67.2646 116.883 72.1782 122.418 74.0442V58.0593H112.094V61.3247Z" fill="#D36B46"/>
<path d="M127.27 73.2666C119.682 73.2666 113.555 67.1401 113.555 59.5519V42.8207C113.555 42.1054 114.115 41.5457 114.83 41.5457H134.329C137.999 41.5457 140.984 44.5311 140.984 48.2008V59.5519C140.984 67.1401 134.858 73.2666 127.27 73.2666Z" fill="#FC9F6F"/>
<path d="M140.984 57.5929C140.829 57.9661 140.456 58.2149 140.052 58.2149H134.018C133.459 58.2149 132.992 57.7484 132.992 57.1886V53.7988C132.992 53.239 133.459 52.7726 134.018 52.7726H140.052C140.456 52.7726 140.829 53.0214 140.984 53.3945V52.0884C140.705 51.9329 140.394 51.8396 140.052 51.8396H134.018C132.93 51.8396 132.059 52.7104 132.059 53.7988V57.1886C132.059 58.2771 132.93 59.1478 134.018 59.1478H140.052C140.394 59.1478 140.705 59.0545 140.984 58.8991V57.5929Z" fill="#DD9883"/>
<path d="M128.856 58.6502H122.823C121.983 58.6502 121.33 57.966 121.33 57.1574V53.7677C121.33 52.928 122.014 52.2749 122.823 52.2749H128.856C129.696 52.2749 130.349 52.9591 130.349 53.7677V57.1574C130.349 57.9971 129.664 58.6502 128.856 58.6502Z" stroke="#DD9883" stroke-width="3" stroke-miterlimit="10" stroke-linecap="round" stroke-linejoin="round"/>
<path opacity="0.6" d="M122.076 62.1645V45.4333C122.076 44.718 122.636 44.1582 123.351 44.1582L134.609 40.2087C133.396 38.6226 136.475 41.577 134.329 41.577H114.83C114.115 41.577 113.555 42.1368 113.555 42.8521V59.5833C113.555 67.1714 119.682 73.2979 127.27 73.2979C127.425 73.2979 127.581 73.2979 127.767 73.2979C124.315 70.7789 122.076 66.736 122.076 62.1645Z" fill="#EF9067"/>
<path d="M140.051 58.0281H134.018C133.179 58.0281 132.526 57.3439 132.526 56.5354V53.1456C132.526 52.3059 133.21 51.6528 134.018 51.6528H140.051C140.891 51.6528 141.544 52.337 141.544 53.1456V56.5354C141.544 57.375 140.86 58.0281 140.051 58.0281Z" stroke="#F6CDF7" stroke-width="3" stroke-miterlimit="10" stroke-linecap="round" stroke-linejoin="round"/>
<path d="M130.846 66.3626C129.105 66.3626 127.705 64.9631 127.705 63.2527V61.791H133.925V63.2527C133.925 64.9631 132.557 66.3626 130.846 66.3626Z" fill="#FCFAFA"/>
<path d="M125.217 54.4519H128.016" stroke="#161515" stroke-width="3" stroke-miterlimit="10" stroke-linecap="round" stroke-linejoin="round"/>
<path d="M135.791 54.4519H138.59" stroke="#161515" stroke-width="3" stroke-miterlimit="10" stroke-linecap="round" stroke-linejoin="round"/>
<path d="M128.856 58.0281H122.823C121.983 58.0281 121.33 57.3439 121.33 56.5354V53.1456C121.33 52.3059 122.014 51.6528 122.823 51.6528H128.856C129.696 51.6528 130.349 52.337 130.349 53.1456V56.5354C130.349 57.375 129.664 58.0281 128.856 58.0281Z" stroke="#F6CDF7" stroke-width="3" stroke-miterlimit="10" stroke-linecap="round" stroke-linejoin="round"/>
<path d="M133.023 28.9507C129.26 24.0993 122.854 24.1926 121.672 24.0682C120.615 23.8505 114.799 24.1304 110.539 25.25C100.711 27.8623 93.8696 36.7566 93.8696 46.957V60.0186C93.8696 68.7884 100.338 79.4243 108.642 82.1921C113.244 83.747 118.344 84.9288 119.557 84.7422C113.4 73.3289 114.239 66.5804 115.981 62.6309C120.148 52.9902 132.37 53.3323 135.387 42.6032C135.449 42.2922 137.346 34.5485 133.023 28.9507Z" fill="#754743"/>
<path d="M171.399 118.702C171.71 117.894 171.866 117.023 171.866 116.121C171.866 111.985 168.538 108.657 164.402 108.657C160.266 108.657 156.938 111.985 156.938 116.121C156.938 117.023 157.094 117.894 157.405 118.702H171.399Z" fill="#EF9067"/>
<path d="M147.453 119.106C146.831 116.245 143.379 114.068 139.181 114.068C135.014 114.068 131.53 116.245 130.908 119.106H147.453Z" fill="#F4EFF0"/>
<path d="M106.496 97.3373C109.003 97.3373 111.036 94.1488 111.036 90.2156C111.036 86.2825 109.003 83.094 106.496 83.094C103.988 83.094 101.955 86.2825 101.955 90.2156C101.955 94.1488 103.988 97.3373 106.496 97.3373Z" fill="#EF9067"/>
<path d="M120.241 111.581C114.27 111.581 109.419 106.729 109.419 100.758V87.5412C109.419 85.4887 107.74 83.8093 105.687 83.8093C103.635 83.8093 101.955 85.4887 101.955 87.5412V100.758C101.955 110.865 110.134 119.044 120.241 119.044H135.387V111.581H127.799H120.241Z" fill="#FC9F6F"/>
<path d="M183.124 119.106H148.293C147.857 119.106 147.484 118.733 147.484 118.298C147.484 117.862 147.857 117.489 148.293 117.489H183.155C183.59 117.489 183.963 117.862 183.963 118.298C183.963 118.733 183.59 119.106 183.124 119.106Z" fill="white"/>
<path d="M183.123 118.298H148.293C147.982 118.298 147.733 118.142 147.577 117.894C147.515 118.018 147.453 118.142 147.453 118.298C147.453 118.733 147.826 119.106 148.262 119.106H183.123C183.559 119.106 183.932 118.733 183.932 118.298C183.932 118.142 183.901 118.018 183.808 117.894C183.683 118.111 183.434 118.298 183.123 118.298Z" fill="#F4EFF0"/>
<path d="M155.041 119.106H148.293C147.857 119.106 147.484 118.733 147.484 118.298C147.484 117.862 147.857 117.489 148.293 117.489H155.041C155.477 117.489 155.85 117.862 155.85 118.298C155.85 118.733 155.508 119.106 155.041 119.106Z" fill="#F4EFF0"/>
<path d="M180.667 117.489H178.117V116.899C178.117 116.588 178.365 116.308 178.708 116.308H180.076C180.387 116.308 180.667 116.556 180.667 116.899V117.489V117.489Z" fill="#F4EFF0"/>
<path d="M177.557 117.489H175.007V116.899C175.007 116.588 175.256 116.308 175.598 116.308H176.966C177.277 116.308 177.557 116.556 177.557 116.899V117.489V117.489Z" fill="#F4EFF0"/>
<path d="M174.447 117.489H171.897V116.899C171.897 116.588 172.146 116.308 172.488 116.308H173.856C174.167 116.308 174.447 116.556 174.447 116.899V117.489V117.489Z" fill="#F4EFF0"/>
<path d="M171.337 117.489H168.787V116.899C168.787 116.588 169.036 116.308 169.378 116.308H170.746C171.057 116.308 171.337 116.556 171.337 116.899V117.489V117.489Z" fill="#F4EFF0"/>
<path d="M168.227 117.489H165.677V116.899C165.677 116.588 165.926 116.308 166.268 116.308H167.636C167.947 116.308 168.227 116.556 168.227 116.899V117.489V117.489Z" fill="#F4EFF0"/>
<path d="M165.117 117.489H162.567V116.899C162.567 116.588 162.816 116.308 163.158 116.308H164.526C164.837 116.308 165.117 116.556 165.117 116.899V117.489V117.489Z" fill="#F4EFF0"/>
<path d="M162.007 117.489H159.457V116.899C159.457 116.588 159.706 116.308 160.048 116.308H161.416C161.727 116.308 162.007 116.556 162.007 116.899V117.489V117.489Z" fill="#F4EFF0"/>
<path d="M158.897 117.489H156.347V116.899C156.347 116.588 156.596 116.308 156.938 116.308H158.307C158.618 116.308 158.897 116.556 158.897 116.899V117.489V117.489Z" fill="#F4EFF0"/>
<path d="M155.788 117.489H153.237V116.899C153.237 116.588 153.486 116.308 153.828 116.308H155.197C155.508 116.308 155.788 116.556 155.788 116.899V117.489V117.489Z" fill="#F4EFF0"/>
<path d="M152.678 117.49H150.128V116.899C150.128 116.588 150.376 116.308 150.718 116.308H152.087C152.398 116.308 152.678 116.557 152.678 116.899V117.49V117.49Z" fill="#F4EFF0"/>
<path d="M148.293 119.107H155.041C155.477 119.107 155.85 118.733 155.85 118.298H147.453C147.453 118.733 147.826 119.107 148.293 119.107Z" fill="#E2E2E2"/>
<path d="M206.323 103.993H154.077C153.051 103.993 152.211 103.153 152.211 102.127L158.68 64.8081C158.68 63.7818 159.519 62.9421 160.546 62.9421H212.792C213.818 62.9421 214.658 63.7818 214.658 64.8081L208.189 102.127C208.189 103.153 207.381 103.993 206.323 103.993Z" fill="#CECECE"/>
<path d="M209.433 103.992H157.187C156.161 103.992 155.321 103.153 155.321 102.127L161.79 64.8078C161.79 63.7816 162.629 62.9419 163.656 62.9419H215.902C216.928 62.9419 217.768 63.7816 217.768 64.8078L211.299 102.127C211.299 103.153 210.491 103.992 209.433 103.992Z" fill="#F4EFF0"/>
<path d="M193.479 117.085L189.188 95.3472H181.537C180.604 95.3472 179.889 96.2179 180.076 97.1198L183.87 116.308C184.025 117.023 183.466 117.676 182.75 117.676H178.085C177.246 117.676 176.593 118.36 176.593 119.169H184.43H191.707C192.857 119.2 193.697 118.174 193.479 117.085Z" fill="#CECECE"/>
<path d="M193.884 119.2H185.954L181.351 95.8758C181.289 95.5959 181.506 95.3782 181.786 95.3782H190.712L195.128 117.738C195.252 118.485 194.661 119.2 193.884 119.2Z" fill="#F4EFF0"/>
<path d="M184.461 119.2H185.954L185.549 117.085H184.025L184.461 119.2Z" fill="#F4EFF0"/>
<path d="M184.461 119.2C185.238 119.2 185.829 118.485 185.674 117.707L185.549 117.085H183.87L184.461 119.2Z" fill="#CECECE"/>
<path d="M191.303 84.2135C189.623 84.2135 188.255 82.8451 188.255 81.1658C188.255 80.606 188.41 80.1084 188.659 79.673C188.224 79.5486 187.757 79.4553 187.26 79.4553C184.616 79.4553 182.502 81.6012 182.502 84.2135C182.502 86.8258 184.647 88.9716 187.26 88.9716C189.903 88.9716 192.018 86.8258 192.018 84.2135C192.018 84.1824 192.018 84.1513 192.018 84.1202C191.769 84.1824 191.551 84.2135 191.303 84.2135Z" fill="#CECECE"/>
<path d="M155.134 137.237L129.509 143.986C122.543 145.82 115.483 140.876 112.094 132.697L151.807 124.58C155.29 123.678 158.866 125.762 159.768 129.245C160.701 132.759 158.617 136.335 155.134 137.237Z" fill="#3B323A"/>
<path d="M180.916 176.111L168.974 181.429L148.044 134.345C146.582 131.049 148.075 127.192 151.372 125.731C154.668 124.269 158.524 125.762 159.986 129.058L180.916 176.111Z" fill="#3B323A"/>
<path d="M92.1281 127.814H225.294C226.911 127.814 228.248 126.477 228.248 124.86V122.061C228.248 120.444 226.911 119.107 225.294 119.107H92.1281C90.511 119.107 89.1737 120.444 89.1737 122.061V124.86C89.1737 126.477 90.4799 127.814 92.1281 127.814Z" fill="#F2F2F2"/>
<path d="M84.5089 119.106H79.4708C76.9207 119.106 74.8371 117.023 74.8371 114.473V100.758H89.1426V114.473C89.1737 117.023 87.0901 119.106 84.5089 119.106Z" fill="#FF6161"/>
<path d="M76.4542 102.624C73.1267 102.624 70.4521 105.33 70.4521 108.626C70.4521 111.923 73.1578 114.628 76.4542 114.628C79.7507 114.628 82.4563 111.923 82.4563 108.626C82.4563 105.33 79.7507 102.624 76.4542 102.624ZM76.4542 113.322C73.873 113.322 71.7583 111.207 71.7583 108.626C71.7583 106.045 73.873 103.93 76.4542 103.93C79.0354 103.93 81.1502 106.045 81.1502 108.626C81.1191 111.238 79.0354 113.322 76.4542 113.322Z" fill="#F4A36C"/>
<path d="M84.5089 119.106H79.4708C76.9207 119.106 74.8371 117.023 74.8371 114.473V100.758H89.1426V114.473C89.1737 117.023 87.0901 119.106 84.5089 119.106Z" fill="#F7BC8B"/>
<path d="M81.6167 114.753C80.1861 114.753 79.0355 113.602 79.0355 112.171V100.758H74.8371V114.473C74.8371 117.023 76.9207 119.106 79.4708 119.106H84.5089C86.9657 119.106 88.9871 117.178 89.1426 114.753H81.6167Z" fill="#EFA573"/>
<path d="M140.922 119.106C141.233 118.298 141.389 117.427 141.389 116.525C141.389 112.389 138.061 109.062 133.925 109.062C129.789 109.062 126.461 112.389 126.461 116.525C126.461 117.427 126.617 118.298 126.928 119.106H140.922Z" fill="#FC9F6F"/>
<path opacity="0.77" d="M80.4349 98.2704C81.5513 98.2704 82.4563 97.3654 82.4563 96.249C82.4563 95.1326 81.5513 94.2275 80.4349 94.2275C79.3185 94.2275 78.4135 95.1326 78.4135 96.249C78.4135 97.3654 79.3185 98.2704 80.4349 98.2704Z" fill="#F2F2F2"/>
<path opacity="0.77" d="M84.1667 92.2058C85.8328 92.2058 87.1833 90.8552 87.1833 89.1892C87.1833 87.5232 85.8328 86.1726 84.1667 86.1726C82.5007 86.1726 81.1501 87.5232 81.1501 89.1892C81.1501 90.8552 82.5007 92.2058 84.1667 92.2058Z" fill="#F2F2F2"/>
<path d="M54.6539 72.7379C59.3944 72.7379 63.2372 68.895 63.2372 64.1546C63.2372 59.4142 59.3944 55.5713 54.6539 55.5713C49.9135 55.5713 46.0706 59.4142 46.0706 64.1546C46.0706 68.895 49.9135 72.7379 54.6539 72.7379Z" fill="#4C21D7"/>
</g>
<defs>
<linearGradient id="paint0_linear" x1="140" y1="0" x2="140" y2="125" gradientUnits="userSpaceOnUse">
<stop stop-color="#4C21D7"/>
<stop offset="1" stop-color="#9D21D7"/>
</linearGradient>
</defs>
</svg>
