<svg width="507" height="410" viewBox="0 0 507 410" fill="none" xmlns="http://www.w3.org/2000/svg">
<path opacity="0.34" d="M454.433 409.697H44.5496C39.3202 409.697 35.0836 405.461 35.0836 400.231C35.0836 395.002 39.3202 390.765 44.5496 390.765H454.433C459.662 390.765 463.899 395.002 463.899 400.231C463.899 405.461 459.662 409.697 454.433 409.697Z" fill="black"/>
<path d="M484.552 284.985H401.211C392.738 284.985 385.854 278.1 385.854 269.627C385.854 261.154 392.738 254.27 401.211 254.27H447.747C457.809 254.27 465.951 246.128 465.951 236.066C465.951 226.004 457.809 217.862 447.747 217.862H406.375C395.055 217.862 385.854 208.661 385.854 197.342C385.854 186.022 395.055 176.821 406.375 176.821H452.381C462.442 176.821 470.651 168.613 470.651 158.551C470.651 148.489 462.442 140.281 452.381 140.281H385.92H370.033C359.972 140.281 351.763 132.073 351.763 122.011C351.763 111.949 359.972 103.741 370.033 103.741H388.038C398.1 103.741 406.308 95.5329 406.308 85.4712C406.308 75.4094 398.1 67.2012 388.038 67.2012H377.778H376.057H267.298H263.591H149.999H123.984C113.923 67.2012 105.714 75.4094 105.714 85.4712C105.714 95.5329 113.923 103.741 123.984 103.741H131.729C141.791 103.741 149.999 111.949 149.999 122.011C149.999 132.073 141.791 140.281 131.729 140.281H62.0253C54.2804 140.281 47.9918 146.57 47.9918 154.315C47.9918 162.059 54.2804 168.348 62.0253 168.348H135.436C143.512 168.348 150.065 174.901 150.065 182.977C150.065 191.053 143.512 197.606 135.436 197.606H18.27C8.20825 197.606 0 205.815 0 215.876C0 225.938 8.20825 234.146 18.27 234.146H131.729C141.791 234.146 149.999 242.355 149.999 252.416C149.999 262.478 141.791 270.686 131.729 270.686H63.2168C47.0651 270.686 33.9583 283.793 33.9583 299.945C33.9583 316.097 47.0651 329.203 63.2168 329.203H149.999H188.525H210.171H385.92H484.552C496.732 329.203 506.595 319.34 506.595 307.16C506.595 294.848 496.732 284.985 484.552 284.985Z" fill="#4C21D7"/>
<path d="M329.924 400.247H341.839V220.99H329.924V400.247Z" fill="#2F262D"/>
<path d="M284.575 257.117C282.655 252.814 284.575 247.717 288.944 245.731C290.069 245.267 291.261 245.003 292.452 245.003C295.828 245.003 298.939 246.989 300.329 250.1L342.695 345.554L326.94 352.57L284.575 257.117Z" fill="#FC9F6F"/>
<path d="M213.749 400.247H225.664L225.664 220.99H213.749L213.749 400.247Z" fill="#2F262D"/>
<path d="M268.887 232.69C227.911 232.69 194.747 201.446 194.747 162.986C194.747 153.057 196.998 143.591 200.97 134.985C174.889 145.775 156.685 170.334 156.685 198.798C156.685 237.324 189.849 268.502 230.824 268.502C261.208 268.502 287.289 251.357 298.741 226.799C289.54 230.572 279.478 232.69 268.887 232.69Z" fill="#F2F2F2"/>
<path d="M227.845 251.556C250.256 251.556 268.423 234.87 268.423 214.288C268.423 193.705 250.256 177.02 227.845 177.02C205.435 177.02 187.267 193.705 187.267 214.288C187.267 234.87 205.435 251.556 227.845 251.556Z" fill="#3B323A"/>
<path d="M154.765 220.974H64.0111C60.569 220.974 57.7225 218.127 57.7225 214.685V208.728C57.7225 205.285 60.569 202.439 64.0111 202.439H154.765C158.207 202.439 161.054 205.285 161.054 208.728V214.685C161.054 218.127 158.207 220.974 154.765 220.974Z" fill="#AFAFAF"/>
<path d="M262.995 185.89C250.286 185.89 239.959 175.563 239.959 162.854V139.818C239.959 131.014 232.876 123.931 224.072 123.931V162.854C224.072 184.367 241.482 201.777 262.995 201.777H295.232V185.89H262.995Z" fill="#EF9067"/>
<path d="M268.224 64.2886C265.841 94.4076 239.363 127.77 214.606 123.534C190.908 119.496 174.624 82.0952 182.634 55.8818C187.598 39.7301 201.235 29.6021 212.223 21.4601C223.609 12.987 231.287 7.29423 240.025 8.68434C257.368 11.3322 270.144 40.3258 268.224 64.2886Z" fill="#603936"/>
<path d="M234.796 150.012C234.332 149.483 230.625 145.18 229.963 144.584C228.242 137.501 224.734 129.69 225.462 120.555C220.497 116.914 212.289 112.281 202.956 112.943C200.175 113.141 197.263 113.803 195.806 114.134C187.731 115.988 182.634 118.966 180.979 119.959C178.728 121.349 177.603 122.011 176.279 123.335C172.704 127.042 171.844 131.544 171.38 134.191C167.409 157.227 170.52 179.337 170.917 181.256C171.645 184.765 172.638 187.876 172.638 187.876C174.293 193.105 176.279 196.349 176.808 197.805C179.456 204.954 185.48 219.981 191.835 231.433C196.468 232.161 206.994 236.794 213.944 234.411C224.535 230.771 246.38 222.629 254.191 220.974C244.46 210.051 235.524 197.871 233.207 183.044C232.611 179.204 232.082 175.431 231.684 171.724C232.611 171.261 238.238 168.414 239.363 162.722C240.555 156.565 235.722 151.071 234.796 150.012Z" fill="#F05364"/>
<path d="M210.891 136.039C216.666 134.429 219.827 127.671 217.951 120.945C216.076 114.22 209.874 110.073 204.099 111.683C198.324 113.294 195.163 120.051 197.038 126.777C198.914 133.503 205.116 137.65 210.891 136.039Z" fill="#EF9067"/>
<path d="M205.802 108.838C209.443 117.444 215.467 120.423 219.306 122.673C226.786 127.042 240.82 126.645 240.82 126.645C241.283 123.6 241.746 120.952 244.129 115.921C247.572 108.441 250.749 106.654 255.184 99.902C261.804 89.7079 265.113 77.3955 262.995 76.204C261.473 75.2772 257.302 80.0433 254.588 82.8235C246.843 90.767 229.5 102.55 205.802 108.838Z" fill="#603936"/>
<path d="M205.537 127.77H202.757C196.667 127.77 191.769 122.872 191.769 116.782V75.0123H213.745V119.496C213.745 124.063 210.039 127.77 205.537 127.77Z" fill="#EF9067"/>
<path d="M81.8067 400.247H93.7219L93.7219 220.99H81.8067L81.8067 400.247Z" fill="#2F262D"/>
<path d="M155.092 400.247H167.007L167.007 220.99H155.092L155.092 400.247Z" fill="#494149"/>
<path d="M401.642 400.247H413.557V220.99H401.642V400.247Z" fill="#494149"/>
<path opacity="0.71" d="M191.769 79.4475C193.225 92.0908 201.963 102.55 213.745 106.521V72.4969H191.769V79.4475Z" fill="#D36B46"/>
<path d="M224.072 104.866C207.92 104.866 194.88 91.8259 194.88 75.6742V40.0609C194.88 38.5384 196.071 37.3469 197.594 37.3469H239.098C246.91 37.3469 253.264 43.7017 253.264 51.5128V75.6742C253.264 91.8259 240.224 104.866 224.072 104.866Z" fill="#FC9F6F"/>
<path d="M253.264 71.504C252.933 72.2983 252.139 72.8279 251.278 72.8279H238.437C237.245 72.8279 236.252 71.835 236.252 70.6435V63.4281C236.252 62.2366 237.245 61.2437 238.437 61.2437H251.278C252.139 61.2437 252.933 61.7732 253.264 62.5676V59.7874C252.669 59.4564 252.007 59.2578 251.278 59.2578H238.437C236.12 59.2578 234.266 61.1113 234.266 63.4281V70.6435C234.266 72.9603 236.12 74.8138 238.437 74.8138H251.278C252.007 74.8138 252.669 74.6152 253.264 74.2842V71.504Z" fill="#DD9883"/>
<path d="M227.448 73.7545H214.606C212.819 73.7545 211.429 72.2982 211.429 70.5772V63.3618C211.429 61.5746 212.885 60.1844 214.606 60.1844H227.448C229.235 60.1844 230.625 61.6408 230.625 63.3618V70.5772C230.625 72.3644 229.169 73.7545 227.448 73.7545Z" stroke="#DD9883" stroke-width="3" stroke-miterlimit="10" stroke-linecap="round" stroke-linejoin="round"/>
<path opacity="0.6" d="M213.017 81.2346V45.6214C213.017 44.0989 214.209 42.9074 215.731 42.9074L239.694 34.5006C237.113 31.1246 243.666 37.4132 239.099 37.4132H197.594C196.071 37.4132 194.88 38.6047 194.88 40.1272V75.7404C194.88 91.8921 207.92 104.933 224.072 104.933C224.403 104.933 224.734 104.933 225.131 104.933C217.784 99.5708 213.017 90.9654 213.017 81.2346Z" fill="#EF9067"/>
<path d="M251.278 72.4307H238.436C236.649 72.4307 235.259 70.9744 235.259 69.2533V62.038C235.259 60.2507 236.715 58.8606 238.436 58.8606H251.278C253.066 58.8606 254.456 60.3169 254.456 62.038V69.2533C254.456 71.0406 252.999 72.4307 251.278 72.4307Z" stroke="#F6CDF7" stroke-width="3" stroke-miterlimit="10" stroke-linecap="round" stroke-linejoin="round"/>
<path d="M231.685 90.1711C227.978 90.1711 224.999 87.1923 224.999 83.5515V80.4403H238.238V83.5515C238.238 87.1923 235.325 90.1711 231.685 90.1711Z" fill="#FCFAFA"/>
<path d="M219.703 64.8182H225.661" stroke="#161515" stroke-width="3" stroke-miterlimit="10" stroke-linecap="round" stroke-linejoin="round"/>
<path d="M242.21 64.8182H248.167" stroke="#161515" stroke-width="3" stroke-miterlimit="10" stroke-linecap="round" stroke-linejoin="round"/>
<path d="M227.448 72.4307H214.606C212.819 72.4307 211.429 70.9744 211.429 69.2533V62.038C211.429 60.2507 212.885 58.8606 214.606 58.8606H227.448C229.235 58.8606 230.625 60.3169 230.625 62.038V69.2533C230.625 71.0406 229.169 72.4307 227.448 72.4307Z" stroke="#F6CDF7" stroke-width="3" stroke-miterlimit="10" stroke-linecap="round" stroke-linejoin="round"/>
<path d="M236.318 10.5379C228.309 0.211364 214.672 0.409953 212.157 0.14517C209.906 -0.318199 197.528 0.277563 188.459 2.6606C167.541 8.22103 152.978 27.153 152.978 48.8651V76.6673C152.978 95.3344 166.747 117.973 184.421 123.865C194.218 127.174 205.074 129.69 207.656 129.293C194.549 104.999 196.336 90.6345 200.043 82.2277C208.913 61.7071 234.928 62.4352 241.349 39.5977C241.481 38.9358 245.519 22.4531 236.318 10.5379Z" fill="#754743"/>
<path d="M318.004 201.578C318.666 199.857 318.997 198.004 318.997 196.084C318.997 187.28 311.914 180.197 303.11 180.197C294.306 180.197 287.223 187.28 287.223 196.084C287.223 198.004 287.554 199.857 288.216 201.578H318.004Z" fill="#EF9067"/>
<path d="M267.033 202.439C265.709 196.349 258.361 191.715 249.425 191.715C240.555 191.715 233.141 196.349 231.817 202.439H267.033Z" fill="#F4EFF0"/>
<path d="M179.853 156.102C185.191 156.102 189.518 149.315 189.518 140.943C189.518 132.571 185.191 125.784 179.853 125.784C174.516 125.784 170.189 132.571 170.189 140.943C170.189 149.315 174.516 156.102 179.853 156.102Z" fill="#EF9067"/>
<path d="M209.112 186.42C196.402 186.42 186.076 176.093 186.076 163.384V135.25C186.076 130.882 182.501 127.307 178.132 127.307C173.763 127.307 170.189 130.882 170.189 135.25V163.384C170.189 184.897 187.598 202.307 209.112 202.307H241.349V186.42H225.197H209.112Z" fill="#FC9F6F"/>
<path d="M342.959 202.439H268.82C267.894 202.439 267.099 201.645 267.099 200.718C267.099 199.791 267.894 198.997 268.82 198.997H343.026C343.952 198.997 344.747 199.791 344.747 200.718C344.747 201.645 343.952 202.439 342.959 202.439Z" fill="white"/>
<path d="M342.959 200.718H268.82C268.158 200.718 267.629 200.387 267.298 199.857C267.165 200.122 267.033 200.387 267.033 200.718C267.033 201.644 267.827 202.439 268.754 202.439H342.959C343.886 202.439 344.68 201.644 344.68 200.718C344.68 200.387 344.614 200.122 344.416 199.857C344.151 200.32 343.621 200.718 342.959 200.718Z" fill="#F4EFF0"/>
<path d="M283.185 202.439H268.82C267.894 202.439 267.099 201.645 267.099 200.718C267.099 199.791 267.894 198.997 268.82 198.997H283.185C284.111 198.997 284.906 199.791 284.906 200.718C284.906 201.645 284.178 202.439 283.185 202.439Z" fill="#F4EFF0"/>
<path d="M337.73 198.997H332.302V197.739C332.302 197.077 332.831 196.481 333.56 196.481H336.472C337.134 196.481 337.73 197.011 337.73 197.739V198.997V198.997Z" fill="#F4EFF0"/>
<path d="M331.11 198.997H325.682V197.739C325.682 197.077 326.212 196.481 326.94 196.481H329.853C330.515 196.481 331.11 197.011 331.11 197.739V198.997V198.997Z" fill="#F4EFF0"/>
<path d="M324.491 198.997H319.063V197.739C319.063 197.077 319.592 196.481 320.32 196.481H323.233C323.895 196.481 324.491 197.011 324.491 197.739V198.997V198.997Z" fill="#F4EFF0"/>
<path d="M317.871 198.997H312.443V197.739C312.443 197.077 312.973 196.481 313.701 196.481H316.613C317.275 196.481 317.871 197.011 317.871 197.739V198.997V198.997Z" fill="#F4EFF0"/>
<path d="M311.252 198.997H305.824V197.739C305.824 197.077 306.353 196.481 307.081 196.481H309.994C310.656 196.481 311.252 197.011 311.252 197.739V198.997V198.997Z" fill="#F4EFF0"/>
<path d="M304.632 198.997H299.204V197.739C299.204 197.077 299.734 196.481 300.462 196.481H303.374C304.036 196.481 304.632 197.011 304.632 197.739V198.997V198.997Z" fill="#F4EFF0"/>
<path d="M298.013 198.997H292.585V197.739C292.585 197.077 293.114 196.481 293.842 196.481H296.755C297.417 196.481 298.013 197.011 298.013 197.739V198.997V198.997Z" fill="#F4EFF0"/>
<path d="M291.393 198.997H285.965V197.739C285.965 197.077 286.495 196.481 287.223 196.481H290.135C290.797 196.481 291.393 197.011 291.393 197.739V198.997V198.997Z" fill="#F4EFF0"/>
<path d="M284.773 198.997H279.345V197.739C279.345 197.077 279.875 196.481 280.603 196.481H283.516C284.178 196.481 284.773 197.011 284.773 197.739V198.997V198.997Z" fill="#F4EFF0"/>
<path d="M278.154 198.997H272.726V197.739C272.726 197.077 273.255 196.481 273.984 196.481H276.896C277.558 196.481 278.154 197.011 278.154 197.739V198.997V198.997Z" fill="#F4EFF0"/>
<path d="M268.82 202.439H283.185C284.111 202.439 284.906 201.645 284.906 200.718H267.033C267.033 201.645 267.827 202.439 268.82 202.439Z" fill="#E2E2E2"/>
<path d="M275.241 256.19H222.881L222.483 228.388H287.355C291.724 228.388 295.232 231.896 295.232 236.265C295.166 247.32 286.23 256.19 275.241 256.19Z" fill="#352934"/>
<path d="M233.141 357.005L265.246 248.445C266.305 244.804 269.681 242.289 273.52 242.289C274.314 242.289 275.175 242.421 275.969 242.62C280.537 243.943 283.118 248.776 281.795 253.343L249.69 361.904L233.141 357.005Z" fill="#EF9067"/>
<path d="M259.818 348.135L233.141 340.258L266.768 226.6C268.953 219.252 276.697 215.016 284.045 217.2C291.393 219.385 295.629 227.13 293.445 234.477L259.818 348.135Z" fill="#352934"/>
<path d="M392.341 170.268H281.133C278.948 170.268 277.161 168.481 277.161 166.296L290.93 86.8616C290.93 84.6772 292.717 82.8899 294.901 82.8899H406.11C408.294 82.8899 410.082 84.6772 410.082 86.8616L396.313 166.296C396.313 168.481 394.592 170.268 392.341 170.268Z" fill="#CECECE"/>
<path d="M398.961 170.268H287.752C285.568 170.268 283.78 168.481 283.78 166.296L297.549 86.8615C297.549 84.6771 299.336 82.8898 301.521 82.8898H412.729C414.914 82.8898 416.701 84.6771 416.701 86.8615L402.932 166.296C402.932 168.481 401.211 170.268 398.961 170.268Z" fill="#F4EFF0"/>
<path d="M365.002 198.136L355.867 151.865H339.583C337.597 151.865 336.075 153.719 336.472 155.639L344.548 196.481C344.879 198.004 343.687 199.394 342.165 199.394H332.236C330.448 199.394 329.058 200.85 329.058 202.571H345.739H361.229C363.679 202.638 365.466 200.453 365.002 198.136Z" fill="#CECECE"/>
<path d="M365.863 202.638H348.983L339.186 152.991C339.054 152.395 339.517 151.932 340.113 151.932H359.111L368.511 199.526C368.776 201.115 367.518 202.638 365.863 202.638Z" fill="#F4EFF0"/>
<path d="M345.806 202.638H348.983L348.123 198.136H344.879L345.806 202.638Z" fill="#F4EFF0"/>
<path d="M345.806 202.638C347.461 202.638 348.718 201.115 348.387 199.46L348.122 198.136H344.548L345.806 202.638Z" fill="#CECECE"/>
<path d="M360.369 128.168C356.794 128.168 353.881 125.255 353.881 121.68C353.881 120.489 354.213 119.43 354.742 118.503C353.815 118.238 352.822 118.04 351.763 118.04C346.137 118.04 341.635 122.607 341.635 128.168C341.635 133.728 346.203 138.295 351.763 138.295C357.39 138.295 361.891 133.728 361.891 128.168C361.891 128.101 361.891 128.035 361.891 127.969C361.362 128.101 360.898 128.168 360.369 128.168Z" fill="#CECECE"/>
<path d="M283.383 241.031L228.838 255.395C214.01 259.301 198.984 248.776 191.769 231.366L276.3 214.089C283.714 212.169 291.327 216.605 293.246 224.019C295.232 231.499 290.797 239.111 283.383 241.031Z" fill="#3B323A"/>
<path d="M338.26 323.775L312.84 335.095L268.291 234.875C265.18 227.858 268.357 219.65 275.374 216.538C282.39 213.427 290.599 216.605 293.71 223.621L338.26 323.775Z" fill="#3B323A"/>
<path d="M149.271 220.974H432.721C436.163 220.974 439.009 218.127 439.009 214.685V208.728C439.009 205.285 436.163 202.439 432.721 202.439H149.271C145.829 202.439 142.982 205.285 142.982 208.728V214.685C142.982 218.127 145.763 220.974 149.271 220.974Z" fill="#F2F2F2"/>
<path d="M379.698 356.013L323.365 366.273C321.181 366.67 319.129 365.28 318.666 363.228L318.268 361.441C317.143 356.277 320.453 351.048 325.881 349.658L366.922 339.265C374.866 337.279 382.875 340.92 384.332 347.606L384.861 349.989C385.457 352.703 383.14 355.417 379.698 356.013Z" fill="#535452"/>
<path d="M381.882 350.915L318.93 362.367C318.798 362.367 318.666 362.434 318.533 362.434L318.732 363.228C319.195 365.346 321.247 366.67 323.432 366.273L379.764 356.013C383.206 355.417 385.589 352.703 384.994 349.989L384.927 349.79C384.001 350.32 383.008 350.717 381.882 350.915Z" fill="#FFFDFD"/>
<path d="M263.392 391.427L216.327 358.859C214.54 357.601 214.01 355.152 215.202 353.365L216.195 351.776C219.041 347.341 225.131 345.951 229.897 348.864L266.239 370.576C273.321 374.812 276.366 383.087 272.66 388.779L271.336 390.832C269.879 393.148 266.239 393.413 263.392 391.427Z" fill="#424441"/>
<path d="M268.556 389.375L215.93 352.968C215.798 352.901 215.732 352.769 215.599 352.703L215.202 353.365C214.077 355.152 214.54 357.601 216.327 358.859L263.392 391.427C266.239 393.413 269.879 393.148 271.336 390.831L271.468 390.633C270.475 390.434 269.482 389.971 268.556 389.375Z" fill="#CECECE"/>
<path d="M133.053 202.439H122.329C116.901 202.439 112.466 198.004 112.466 192.576V163.383H142.916V192.576C142.982 198.004 138.547 202.439 133.053 202.439Z" fill="#FF6161"/>
<path d="M115.908 167.355C108.826 167.355 103.133 173.114 103.133 180.131C103.133 187.148 108.892 192.907 115.908 192.907C122.925 192.907 128.684 187.148 128.684 180.131C128.684 173.114 122.925 167.355 115.908 167.355ZM115.908 190.126C110.414 190.126 105.913 185.625 105.913 180.131C105.913 174.637 110.414 170.135 115.908 170.135C121.403 170.135 125.904 174.637 125.904 180.131C125.838 185.691 121.403 190.126 115.908 190.126Z" fill="#F4A36C"/>
<path d="M133.053 202.439H122.329C116.901 202.439 112.466 198.004 112.466 192.576V163.383H142.916V192.576C142.982 198.004 138.547 202.439 133.053 202.439Z" fill="#F7BC8B"/>
<path d="M126.897 193.171C123.852 193.171 121.403 190.722 121.403 187.677V163.383H112.466V192.576C112.466 198.004 116.901 202.439 122.329 202.439H133.053C138.283 202.439 142.585 198.335 142.916 193.171H126.897Z" fill="#EFA573"/>
<path d="M253.132 202.439C253.794 200.718 254.125 198.864 254.125 196.945C254.125 188.141 247.042 181.058 238.238 181.058C229.434 181.058 222.351 188.141 222.351 196.945C222.351 198.864 222.682 200.718 223.344 202.439H253.132Z" fill="#FC9F6F"/>
<path opacity="0.77" d="M124.382 158.088C126.758 158.088 128.684 156.161 128.684 153.785C128.684 151.409 126.758 149.482 124.382 149.482C122.005 149.482 120.079 151.409 120.079 153.785C120.079 156.161 122.005 158.088 124.382 158.088Z" fill="#F2F2F2"/>
<path opacity="0.77" d="M132.325 145.18C135.871 145.18 138.746 142.305 138.746 138.759C138.746 135.213 135.871 132.338 132.325 132.338C128.779 132.338 125.904 135.213 125.904 138.759C125.904 142.305 128.779 145.18 132.325 145.18Z" fill="#F2F2F2"/>
<path d="M69.5054 103.741C79.5956 103.741 87.7754 95.5614 87.7754 85.4712C87.7754 75.3809 79.5956 67.2012 69.5054 67.2012C59.4152 67.2012 51.2354 75.3809 51.2354 85.4712C51.2354 95.5614 59.4152 103.741 69.5054 103.741Z" fill="#4C21D7"/>
</svg>
