<?xml version="1.0" standalone="no"?>
<!DOCTYPE svg PUBLIC "-//W3C//DTD SVG 20010904//EN"
 "http://www.w3.org/TR/2001/REC-SVG-20010904/DTD/svg10.dtd">
<svg version="1.0" xmlns="http://www.w3.org/2000/svg"
 width="1125.000000pt" height="1125.000000pt" viewBox="0 0 1125.000000 1125.000000"
 preserveAspectRatio="xMidYMid meet">
<metadata>
Created by potrace 1.11, written by Peter Selinger 2001-2013
</metadata>
<g transform="translate(0.000000,1125.000000) scale(0.100000,-0.100000)"
fill="#000000" stroke="none">
<path d="M5219 9536 c-2 -2 -42 -6 -89 -10 -47 -3 -101 -8 -120 -11 -19 -3
-53 -7 -75 -10 -96 -12 -126 -17 -220 -36 -396 -80 -779 -223 -1120 -417 -91
-52 -326 -204 -346 -225 -8 -7 -21 -18 -30 -23 -97 -56 -451 -380 -583 -534
-284 -332 -488 -662 -648 -1050 -93 -225 -185 -538 -217 -740 -6 -36 -13 -74
-15 -85 -2 -11 -7 -41 -10 -67 -3 -27 -8 -67 -11 -90 -3 -24 -10 -86 -14 -138
-10 -106 -9 -2943 1 -2975 3 -11 11 -54 18 -95 7 -41 30 -128 51 -193 127
-390 394 -716 749 -916 141 -80 338 -154 460 -173 3 -1 21 -5 40 -9 92 -22
248 -24 1570 -24 1461 0 1589 3 1766 39 12 2 45 7 75 11 30 4 57 9 60 11 4 2
24 6 45 10 105 16 461 117 559 159 17 7 57 23 90 35 84 32 363 168 466 227
420 244 785 563 1086 948 84 108 223 310 223 325 0 5 5 10 10 10 6 0 10 4 10
9 0 5 20 44 45 86 55 92 140 261 184 365 18 41 38 89 46 105 82 188 202 641
230 870 3 28 8 66 10 85 17 124 20 361 20 1625 0 1354 -2 1490 -26 1594 -6 25
-12 53 -14 61 -2 8 -10 40 -19 70 -9 30 -15 58 -13 61 1 3 -4 13 -12 22 -7 10
-11 17 -8 17 12 0 -81 199 -136 290 -223 367 -584 635 -994 739 -43 11 -98 23
-123 26 -25 4 -70 11 -100 15 -52 8 -2862 14 -2871 6z m2924 -809 c267 -83
467 -270 562 -522 25 -65 31 -88 43 -160 4 -22 7 -663 7 -1425 0 -1197 -4
-1535 -20 -1560 -2 -3 -6 -27 -9 -55 -13 -109 -49 -270 -92 -415 -160 -539
-510 -1065 -944 -1420 -30 -25 -56 -48 -58 -52 -2 -5 -8 -8 -13 -8 -6 0 -20
-9 -32 -21 -64 -60 -347 -234 -497 -306 -178 -85 -441 -180 -580 -208 -8 -2
-44 -10 -80 -18 -36 -9 -83 -18 -105 -21 -23 -4 -51 -8 -64 -11 -26 -5 -87
-12 -206 -25 -117 -12 -2747 -13 -2833 0 -227 32 -440 163 -578 355 -59 84
-100 173 -129 286 l-24 94 2 1425 c2 784 6 1435 9 1448 4 13 10 51 13 85 3 34
8 69 10 77 2 8 7 31 10 50 41 257 142 557 282 835 155 308 404 630 663 855 34
30 68 60 74 65 6 6 49 40 96 77 220 170 506 328 785 431 176 65 452 132 630
152 28 3 79 10 115 14 36 5 697 8 1470 7 l1405 -1 88 -28z"/>
<path d="M7925 8526 c-170 -42 -314 -189 -360 -365 -84 -325 176 -644 508
-626 86 5 95 7 169 35 144 54 261 188 302 345 17 68 15 208 -4 265 -40 120
-146 252 -240 300 -113 57 -258 76 -375 46z"/>
<path d="M5577 8074 c-1 -1 -49 -5 -106 -8 -124 -8 -281 -28 -351 -46 -19 -5
-51 -12 -70 -15 -75 -13 -361 -116 -469 -170 -102 -50 -260 -137 -286 -157 -5
-4 -48 -36 -95 -69 -165 -120 -340 -285 -458 -434 -35 -44 -70 -88 -78 -98
-30 -37 -124 -185 -166 -262 -117 -215 -220 -497 -253 -694 -3 -19 -8 -37 -10
-40 -2 -4 -6 -35 -10 -71 -3 -35 -8 -67 -10 -70 -6 -9 -18 -213 -18 -298 1
-89 11 -255 18 -294 3 -12 7 -45 11 -73 7 -64 39 -210 65 -299 12 -38 22 -76
24 -85 7 -36 76 -203 123 -302 168 -347 380 -606 731 -891 8 -6 64 -45 125
-86 269 -180 673 -334 961 -368 28 -3 53 -8 56 -10 11 -6 212 -18 319 -18 160
0 289 11 435 38 327 61 639 187 910 369 438 294 769 720 942 1212 38 107 41
117 71 240 22 86 27 111 42 220 21 149 25 215 24 355 -2 200 -12 299 -50 488
-75 368 -249 738 -486 1030 -86 106 -276 296 -373 372 -285 226 -620 388 -965
468 -81 19 -101 23 -195 37 -22 4 -51 8 -65 11 -40 6 -338 23 -343 18z m428
-828 c76 -11 241 -70 360 -131 263 -133 483 -328 641 -570 292 -447 349 -1012
154 -1507 -35 -88 -100 -221 -106 -215 -1 1 -5 22 -9 46 -30 204 -133 394
-295 548 -183 172 -411 295 -930 503 -369 147 -448 184 -556 255 -143 95 -235
219 -263 353 -14 66 -14 202 0 262 56 243 316 423 659 456 36 4 66 7 67 8 5 4
239 -3 278 -8z m-1680 -905 c53 -247 211 -466 456 -630 136 -91 411 -222 757
-360 336 -134 443 -185 548 -259 189 -134 273 -272 280 -462 12 -341 -183
-531 -611 -595 -79 -12 -381 -15 -455 -4 -41 6 -128 28 -192 49 -423 141 -767
441 -961 840 -50 101 -109 259 -121 323 -2 12 -9 42 -14 67 -42 185 -45 445
-6 632 7 37 16 81 19 97 9 50 75 233 115 316 21 44 65 122 97 173 l58 93 7
-103 c4 -57 14 -137 23 -177z"/>
<path d="M3131 3678 c-104 -16 -227 -82 -296 -160 -172 -195 -172 -485 -1
-675 154 -171 391 -217 604 -116 66 31 176 135 213 203 81 147 83 337 6 485
-35 68 -125 161 -189 199 -99 57 -221 80 -337 64z"/>
</g>
</svg>
